<svg xmlns="http://www.w3.org/2000/svg" xmlns:xlink="http://www.w3.org/1999/xlink" viewBox="0 0 224.75 31.86"><defs><style>.cls-1{fill:#00583d;}.cls-2{fill:url(#linear-gradient);}.cls-3{fill:url(#linear-gradient-2);}</style><linearGradient id="linear-gradient" x1="62.53" y1="-0.16" x2="55.38" y2="21.08" gradientUnits="userSpaceOnUse"><stop offset="0" stop-color="#94d1ca"/><stop offset="0.05" stop-color="#74c7c0"/><stop offset="0.12" stop-color="#51bcb4"/><stop offset="0.19" stop-color="#33b2ab"/><stop offset="0.26" stop-color="#1daba3"/><stop offset="0.34" stop-color="#0ca69e"/><stop offset="0.43" stop-color="#03a39b"/><stop offset="0.56" stop-color="#00a29a"/><stop offset="0.63" stop-color="#04a39b"/><stop offset="0.7" stop-color="#10a79f"/><stop offset="0.78" stop-color="#25aea6"/><stop offset="0.85" stop-color="#41b7af"/><stop offset="0.92" stop-color="#66c2bb"/><stop offset="1" stop-color="#92d0c9"/><stop offset="1" stop-color="#94d1ca"/></linearGradient><linearGradient id="linear-gradient-2" x1="47.95" y1="0.15" x2="44.5" y2="10.39" gradientUnits="userSpaceOnUse"><stop offset="0" stop-color="#94d1ca"/><stop offset="0.58" stop-color="#3bb5ad"/><stop offset="1" stop-color="#00a29a"/></linearGradient></defs><g id="a_2" data-name="a 2"><g id="a_1-2" data-name="a 1"><path class="cls-1" d="M52.58,27c0-.69-.31-.95-1.11-.95s-1.13.26-1.13.89.23.93,1.36,1.09c1.69.25,2.14.75,2.14,1.87,0,1.43-.82,2-2.37,2s-2.32-.52-2.32-2h1.11c0,.76.36,1,1.21,1s1.24-.27,1.24-1-.23-.87-1.46-1.06c-1.38-.21-2-.7-2-1.91s.7-1.83,2.23-1.83,2.23.51,2.23,1.9Z"/><path class="cls-1" d="M59,25.19h3.88v.95H60.15V28h2.42v.91H60.15V30.8h2.77v.95H59Z"/><path class="cls-1" d="M72.65,29.58c0,1.63-.72,2.28-2.34,2.28S68,31.21,68,29.58V27.36c0-1.64.72-2.28,2.34-2.28s2.34.64,2.34,2.28Zm-3.57,0c0,1,.4,1.32,1.23,1.32s1.23-.31,1.23-1.32V27.35c0-1-.4-1.32-1.23-1.32s-1.23.31-1.23,1.32Z"/><path class="cls-1" d="M78.91,25.19v4.52c0,.88.39,1.2,1.16,1.2s1.16-.32,1.16-1.2V25.19h1.11v4.48c0,1.67-.79,2.19-2.27,2.19s-2.27-.52-2.27-2.19V25.19Z"/><path class="cls-1" d="M87.64,25.19h1.11V30.8h2.19v.95h-3.3Z"/><path class="cls-1" d="M19,.6h6.28V15.54c0,1.89.37,3.51,2.95,3.51,2.26,0,2.92-1.44,2.92-3.51V.6h6.28V12.71c0,6.15-2.85,8.83-9.2,8.83-5.93,0-9.23-2.26-9.23-8.85Z"/><path class="cls-1" d="M16.65,3.09V.6H0V17.21A3.53,3.53,0,0,0,3.77,20.7H16.65V18.2H6.27V11.26H16.38V8.76H6.27V3.09Z"/><path class="cls-1" d="M72.68,12.55c0,6.69,3.45,9,9.52,9,6.55,0,9.12-3,9.42-7.58h-6.4v1.46c0,2.14-.69,3.62-3,3.62-2.66,0-3-1.67-3-3.62V6.12c0-1.95.39-3.62,3-3.62,2.33,0,3,1.48,3,3.62V7.6h6.4a10.2,10.2,0,0,0-1.08-3.92C89.06,1,86.18,0,82.2,0c-6.11,0-9.51,2.33-9.52,9.11h0Z"/><path class="cls-1" d="M67,1.53a2,2,0,0,0-.33-.62c-.48-.49-1.52-.53-1.94.78l-2,6.55,3.19,10.85a2,2,0,0,0,2,1.61H72.6Z"/><path class="cls-1" d="M51.94,1.53a2.8,2.8,0,0,0-.32-.62c-.49-.49-1.53-.53-1.94.78l-2,6.55,3.25,11.13a2,2,0,0,0,.33.62c.48.49,1.52.53,1.94-.78l2-6.55Z"/><path class="cls-2" d="M64.69,0H60.87a2.19,2.19,0,0,0-2.29,1.53L53.21,19.21c-.42,1.32-1.46,1.27-2,.78a2.2,2.2,0,0,0,2,.91h3.83a2.2,2.2,0,0,0,2.29-1.54L64.71,1.69c.42-1.32,1.46-1.27,2-.78A2.21,2.21,0,0,0,64.69,0Z"/><path class="cls-3" d="M49.66,0H45.83a2.19,2.19,0,0,0-2.28,1.53L34.32,31.75H39a2,2,0,0,0,2-1.47l8.7-28.59h0c.41-1.32,1.46-1.27,2-.78A2.22,2.22,0,0,0,49.66,0Z"/><path class="cls-1" d="M221.31,2.76V12.82H218.5a10.61,10.61,0,0,1-1.07-.06,4.59,4.59,0,0,1-1-.18l-.17.2.41,2.16a7.32,7.32,0,0,1,.78-.11l.86,0h2.95v1.91l3-.49V1.79l.14-1.17-3.63-.5-.17.29a2.66,2.66,0,0,1,.49,1A4.43,4.43,0,0,1,221.31,2.76Z"/><path class="cls-1" d="M224.62,18.52a4.09,4.09,0,0,1-1.41.24h-9.93V16.69l.14-1.17-3.56-.39-.16.29a2.4,2.4,0,0,1,.45,1,5,5,0,0,1,.17,1.31V20a.68.68,0,0,0,.26.53.82.82,0,0,0,.53.19H223.3c.23,0,.48,0,.75,0s.5.05.7.08V18.64Z"/><path class="cls-1" d="M211.45,15l3-.24v-2.9h1.09a13.48,13.48,0,0,0,3.23-.32,7,7,0,0,0,1.67-.57l-.24-2a5.8,5.8,0,0,1-1.85.63,16.92,16.92,0,0,1-3.2.26h-6.65a8.75,8.75,0,0,1-1.25-.08,4.27,4.27,0,0,1-1-.23l-.28.17.4,2.28c.52-.06,1-.1,1.35-.12s.82,0,1.3,0h2.46Z"/><path class="cls-1" d="M208.88,7.7a6.56,6.56,0,0,0,1.86.9,7.34,7.34,0,0,0,2.21.32,7.14,7.14,0,0,0,2.18-.32A6.51,6.51,0,0,0,217,7.7a4.64,4.64,0,0,0,1.25-1.37,3.43,3.43,0,0,0,.45-1.73,3.5,3.5,0,0,0-.45-1.74A4.44,4.44,0,0,0,217,1.48a6.55,6.55,0,0,0-1.83-.92A7.15,7.15,0,0,0,213,.23a7.34,7.34,0,0,0-2.21.33,6.6,6.6,0,0,0-1.86.92,4.36,4.36,0,0,0-1.26,1.38,3.51,3.51,0,0,0-.46,1.74,3.44,3.44,0,0,0,.46,1.73A4.55,4.55,0,0,0,208.88,7.7Zm1.41-4a2.13,2.13,0,0,1,.62-.72,2.88,2.88,0,0,1,.92-.49A3.42,3.42,0,0,1,213,2.29a3.12,3.12,0,0,1,1.07.18,3,3,0,0,1,.9.49,2.25,2.25,0,0,1,.62.72,1.9,1.9,0,0,1,.22.92,1.81,1.81,0,0,1-.22.89,2.48,2.48,0,0,1-.62.72,2.78,2.78,0,0,1-.9.48,3.38,3.38,0,0,1-1.07.17,3.7,3.7,0,0,1-1.12-.17,2.68,2.68,0,0,1-.92-.48,2.34,2.34,0,0,1-.62-.72,1.81,1.81,0,0,1-.22-.89A1.9,1.9,0,0,1,210.29,3.68Z"/><path class="cls-1" d="M134.84.41a2.81,2.81,0,0,1,.49,1,4.42,4.42,0,0,1,.2,1.35V8h-1.72V1.91L134,.73,130.44.24l-.17.29a2.68,2.68,0,0,1,.5,1,4.81,4.81,0,0,1,.2,1.36v9.4a3.69,3.69,0,0,1-1.26.48,7.53,7.53,0,0,1-1.52.17h-4.72V4.56h3.86c.24,0,.49,0,.75,0s.5.05.69.08V2.45l-.12-.12a4.19,4.19,0,0,1-1.42.24h-5a7.42,7.42,0,0,1-1-.08,5.05,5.05,0,0,1-.87-.21l-.29.24a6.07,6.07,0,0,1,.32,1,6.3,6.3,0,0,1,.11,1.07V14.2a.7.7,0,0,0,.27.52.83.83,0,0,0,.53.2h7a7.54,7.54,0,0,0,1.65-.16,4.7,4.7,0,0,0,1-.34v6.81l2.84-.47V9.93h1.72V21.47l2.84-.47V1.63l.15-1L135,.12Z"/><path class="cls-1" d="M112.18.41a2.65,2.65,0,0,1,.5,1,4.74,4.74,0,0,1,.2,1.35V21.47l3-.49V1.79L116,.62l-3.64-.5Z"/><path class="cls-1" d="M155.76.41a2.81,2.81,0,0,1,.49,1,4.74,4.74,0,0,1,.2,1.35V6.81h-2.78a10.61,10.61,0,0,1-1.07-.06,4.59,4.59,0,0,1-.95-.18l-.17.19.41,2.16a7.49,7.49,0,0,1,.78-.1,8.51,8.51,0,0,1,.86,0h2.92V21.47l3-.49V1.79l.14-1.17-3.64-.5Z"/><path class="cls-1" d="M108.5,4.2a5.88,5.88,0,0,0-1.91-1.39,5.47,5.47,0,0,0-2.34-.5,5.4,5.4,0,0,0-2.34.5A6,6,0,0,0,100,4.2a6.87,6.87,0,0,0-1.28,7.08,6.59,6.59,0,0,0,1.28,2,6.11,6.11,0,0,0,1.91,1.38,5.41,5.41,0,0,0,2.34.51,5.47,5.47,0,0,0,2.34-.51,6,6,0,0,0,1.91-1.38,6.62,6.62,0,0,0,1.29-2A6.8,6.8,0,0,0,108.5,4.2Zm-1.39,6.26a4.68,4.68,0,0,1-.68,1.36,3.54,3.54,0,0,1-1,.91,2.21,2.21,0,0,1-1.18.34,2.18,2.18,0,0,1-1.18-.34,3.44,3.44,0,0,1-1-.91,4.67,4.67,0,0,1-.67-1.36,5.36,5.36,0,0,1-.25-1.67,5.46,5.46,0,0,1,.25-1.7,4.85,4.85,0,0,1,.67-1.39,3.34,3.34,0,0,1,1-.92,2.27,2.27,0,0,1,1.18-.34,2.3,2.3,0,0,1,1.18.34,3.43,3.43,0,0,1,1,.92,4.87,4.87,0,0,1,.68,1.39,5.77,5.77,0,0,1,.24,1.7A5.67,5.67,0,0,1,107.11,10.46Z"/><path class="cls-1" d="M181.48,9.31a4.12,4.12,0,0,1-.9,0h-16.1c-.32,0-.65-.06-1-.11a3.92,3.92,0,0,1-.8-.21l-.29.17.41,2.28a8,8,0,0,1,.83-.11l.88,0H171v1.46h-3.5a6.16,6.16,0,0,1-1-.08,4.66,4.66,0,0,1-.85-.2l-.29.16.41,2.29.73-.12a6.92,6.92,0,0,1,1-.07h8.94V16h-8.92a7.68,7.68,0,0,1-1.06-.08,5.15,5.15,0,0,1-.86-.21l-.29.24a5.12,5.12,0,0,1,.31,1,6.51,6.51,0,0,1,.12,1.18v2.39A.71.71,0,0,0,166,21a.81.81,0,0,0,.53.2h12.11l.75,0c.27,0,.5.05.69.09V19.08L180,19a3.38,3.38,0,0,1-.68.17,6.06,6.06,0,0,1-.73,0h-10V17.91h10.7V12.69l-.12-.12a2.87,2.87,0,0,1-.66.18,4.77,4.77,0,0,1-.76.06H174V11.35h6.62l.84,0a6.81,6.81,0,0,1,.82.1V9.24l-.12-.12A4.5,4.5,0,0,1,181.48,9.31Z"/><path class="cls-1" d="M167.59,7.4a7.73,7.73,0,0,0,2.2.81,12.2,12.2,0,0,0,2.69.28,12.41,12.41,0,0,0,2.72-.28,7.58,7.58,0,0,0,2.21-.81,4.53,4.53,0,0,0,1.49-1.3,2.9,2.9,0,0,0,.54-1.74,3,3,0,0,0-.54-1.78,4.56,4.56,0,0,0-1.49-1.31A7.58,7.58,0,0,0,175.2.46a12.41,12.41,0,0,0-2.72-.28,12.2,12.2,0,0,0-2.69.28,7.73,7.73,0,0,0-2.2.81,4.62,4.62,0,0,0-1.48,1.31,3.05,3.05,0,0,0-.55,1.78,2.91,2.91,0,0,0,.55,1.74A4.6,4.6,0,0,0,167.59,7.4Zm1.21-4a2.49,2.49,0,0,1,.88-.63A5.45,5.45,0,0,1,171,2.4a8.24,8.24,0,0,1,1.51-.13,8.71,8.71,0,0,1,1.58.13,5.45,5.45,0,0,1,1.29.39,2.45,2.45,0,0,1,.87.63,1.41,1.41,0,0,1,.32.92,1.43,1.43,0,0,1-.32.92,2.26,2.26,0,0,1-.87.65,5,5,0,0,1-1.29.37,9.76,9.76,0,0,1-1.58.12A9.24,9.24,0,0,1,171,6.28a5,5,0,0,1-1.29-.37,2.3,2.3,0,0,1-.88-.65,1.39,1.39,0,0,1-.33-.92A1.37,1.37,0,0,1,168.8,3.42Z"/><path class="cls-1" d="M199,.41a2.81,2.81,0,0,1,.49,1,3.71,3.71,0,0,1,.21,1.24v.48h-1.45a10.42,10.42,0,0,1-1.06-.06,4.46,4.46,0,0,1-.95-.18l-.17.19.41,2.17a6.65,6.65,0,0,1,.78-.11l.85,0h1.59V7.67h-1.45a10.42,10.42,0,0,1-1.06-.06,4.46,4.46,0,0,1-.95-.18l-.17.19.41,2.17a6.65,6.65,0,0,1,.78-.11l.85,0h1.59v3.12l3-.29V1.8L202.8.62l-3.63-.5Z"/><path class="cls-1" d="M195.83,2.29,196,1.11,192.52.69l-.17.28a2.19,2.19,0,0,1,.44.87A4.83,4.83,0,0,1,193,3.23v1.2h-4.91v-2l.2-1.17L184.75.85l-.17.29a1.82,1.82,0,0,1,.24.43,3.66,3.66,0,0,1,.2.68c.06.25.1.53.14.81a7.88,7.88,0,0,1,0,.82v6.56a.74.74,0,0,0,.27.53.8.8,0,0,0,.53.19h9.83Zm-2.86,7h-4.91V6.32H193Z"/><path class="cls-1" d="M200.32,13.71a8.11,8.11,0,0,0-2.24-.86,12.75,12.75,0,0,0-5.5,0,8.18,8.18,0,0,0-2.25.86,4.51,4.51,0,0,0-1.51,1.35,3.3,3.3,0,0,0,0,3.68,4.67,4.67,0,0,0,1.51,1.37,8.18,8.18,0,0,0,2.25.86,12.75,12.75,0,0,0,5.5,0,8.11,8.11,0,0,0,2.24-.86,4.67,4.67,0,0,0,1.51-1.37,3.3,3.3,0,0,0,0-3.68A4.51,4.51,0,0,0,200.32,13.71Zm-1.17,4.15a2.67,2.67,0,0,1-.88.73,4.83,4.83,0,0,1-1.33.45,9.31,9.31,0,0,1-1.62.14,8.93,8.93,0,0,1-1.58-.14,5,5,0,0,1-1.33-.45,2.75,2.75,0,0,1-.9-.73,1.56,1.56,0,0,1-.34-1,1.43,1.43,0,0,1,.34-.94,2.79,2.79,0,0,1,.9-.69,5,5,0,0,1,1.33-.43,8.07,8.07,0,0,1,1.58-.15,8.41,8.41,0,0,1,1.62.15,4.83,4.83,0,0,1,1.33.43,2.7,2.7,0,0,1,.88.69,1.48,1.48,0,0,1,.33.94A1.61,1.61,0,0,1,199.15,17.86Z"/><path class="cls-1" d="M149.86,10.24a10.34,10.34,0,0,1-.9-4.51V3.46l.14-1.18-3.76-.41-.17.28a3,3,0,0,1,.49,1,4.44,4.44,0,0,1,.2,1.36V5.73a10.34,10.34,0,0,1-.9,4.51,7.8,7.8,0,0,1-1.73,1.94,13.82,13.82,0,0,1-2.67,1.7l1.56,1.78a12.42,12.42,0,0,0,3.38-2.47,10.94,10.94,0,0,0,1.9-2.77,11,11,0,0,0,1.91,2.77,12.36,12.36,0,0,0,3.37,2.47l1.56-1.78a14,14,0,0,1-2.66-1.7A7.8,7.8,0,0,1,149.86,10.24Z"/></g></g></svg>