<svg
	xmlns="http://www.w3.org/2000/svg"
	xmlns:xlink="http://www.w3.org/1999/xlink" viewBox="0 0 224.75 31.84">
	<defs>
		<style>.cls-1{fill:#00583d;}.cls-2{fill:url(#linear-gradient);}.cls-3{fill:url(#linear-gradient-2);}</style>
		<linearGradient id="linear-gradient" x1="62.53" y1="-0.16" x2="55.38" y2="21.08" gradientUnits="userSpaceOnUse">
			<stop offset="0" stop-color="#94d1ca"/>
			<stop offset="0.05" stop-color="#74c7c0"/>
			<stop offset="0.12" stop-color="#51bcb4"/>
			<stop offset="0.19" stop-color="#33b2ab"/>
			<stop offset="0.26" stop-color="#1daba3"/>
			<stop offset="0.34" stop-color="#0ca69e"/>
			<stop offset="0.43" stop-color="#03a39b"/>
			<stop offset="0.56" stop-color="#00a29a"/>
			<stop offset="0.63" stop-color="#04a39b"/>
			<stop offset="0.7" stop-color="#10a79f"/>
			<stop offset="0.78" stop-color="#25aea6"/>
			<stop offset="0.85" stop-color="#41b7af"/>
			<stop offset="0.92" stop-color="#66c2bb"/>
			<stop offset="1" stop-color="#92d0c9"/>
			<stop offset="1" stop-color="#94d1ca"/>
		</linearGradient>
		<linearGradient id="linear-gradient-2" x1="47.95" y1="0.15" x2="44.5" y2="10.39" gradientUnits="userSpaceOnUse">
			<stop offset="0" stop-color="#94d1ca"/>
			<stop offset="0.58" stop-color="#3bb5ad"/>
			<stop offset="1" stop-color="#00a29a"/>
		</linearGradient>
	</defs>
	<g id="layer_2" data-name="layer 2">
		<g id="layer_1-2" data-name="layer 1">
			<path class="cls-1" d="M19,.6h6.28V15.54c0,1.89.37,3.51,2.95,3.51,2.26,0,2.92-1.44,2.92-3.51V.6h6.28V12.71c0,6.15-2.85,8.83-9.2,8.83-5.93,0-9.23-2.26-9.23-8.85Z"/>
			<path class="cls-1" d="M16.65,3.09V.6H0V17.21A3.53,3.53,0,0,0,3.77,20.7H16.65V18.2H6.27V11.26H16.38V8.76H6.27V3.09Z"/>
			<path class="cls-1" d="M72.68,12.55c0,6.69,3.45,9,9.52,9,6.55,0,9.12-3,9.42-7.58h-6.4v1.46c0,2.14-.69,3.62-3,3.62-2.66,0-3-1.67-3-3.62V6.12c0-1.95.39-3.62,3-3.62,2.33,0,3,1.48,3,3.62V7.6h6.4a10.25,10.25,0,0,0-1.08-3.92C89.06,1,86.18,0,82.2,0c-6.11,0-9.51,2.33-9.52,9.11h0Z"/>
			<path class="cls-1" d="M67,1.53a2,2,0,0,0-.33-.62c-.48-.49-1.52-.53-1.94.78l-2,6.55,3.19,10.85a2,2,0,0,0,2,1.61H72.6Z"/>
			<path class="cls-1" d="M51.94,1.53a2.8,2.8,0,0,0-.32-.62c-.49-.49-1.53-.53-1.94.78l-2,6.55,3.25,11.13a2,2,0,0,0,.33.62c.48.49,1.52.53,1.94-.78l2-6.55Z"/>
			<path class="cls-2" d="M64.69,0H60.87a2.19,2.19,0,0,0-2.29,1.53L53.21,19.21c-.42,1.32-1.46,1.27-2,.78a2.2,2.2,0,0,0,2,.91h3.83a2.2,2.2,0,0,0,2.29-1.54L64.71,1.69c.42-1.32,1.46-1.27,2-.78A2.21,2.21,0,0,0,64.69,0Z"/>
			<path class="cls-3" d="M49.66,0H45.83a2.19,2.19,0,0,0-2.28,1.53L34.32,31.75H39a2,2,0,0,0,2-1.47l8.7-28.59h0c.41-1.32,1.46-1.27,2-.78A2.22,2.22,0,0,0,49.66,0Z"/>
			<path class="cls-1" d="M50,31.75h-.73L47.9,27.17,48,28.7v3.05H47V26.14h1.35l1.2,4.25h0l1.21-4.25h1.34v5.61h-.93V28.7l0-1.53Z"/>
			<path class="cls-1" d="M58.69,29.89c0,1.4-.61,1.95-2,1.95s-2-.55-2-1.95V28c0-1.4.61-1.95,2-1.95s2,.55,2,1.95Zm-3,0c0,.87.34,1.13,1,1.13s1.05-.26,1.05-1.13V28c0-.87-.34-1.13-1.05-1.13s-1,.26-1,1.13Z"/>
			<path class="cls-1" d="M63,28.86l2,2.89H63.9a28.42,28.42,0,0,0-1.71-2.47v2.47h-.95V26.14h.95v2.38l1.65-2.38H65Z"/>
			<path class="cls-1" d="M67.2,31.75V26.14H69c1.37,0,2.1.36,2.1,2v1.62c0,1.63-.73,2-2.1,2Zm1-4.8v4H69c.85,0,1.16-.3,1.16-1.13V28c0-1-.41-1.09-1.16-1.09Z"/>
			<path class="cls-1" d="M77.52,29.89c0,1.4-.61,1.95-2,1.95s-2-.55-2-1.95V28c0-1.4.61-1.95,2-1.95s2,.55,2,1.95Zm-3.06,0c0,.87.35,1.13,1.06,1.13s1-.26,1-1.13V28c0-.87-.35-1.13-1-1.13s-1.06.26-1.06,1.13Z"/>
			<path class="cls-1" d="M83.94,31.75H82.75l-1.82-4.44c0,.42,0,1.25,0,1.68v2.76h-.92V26.14h1.19l1.82,4.44c0-.45,0-1.24,0-1.59V26.14h.92Z"/>
			<path class="cls-1" d="M86.48,29.83V28.05c0-1.44.61-2,2-2s1.91.53,1.91,1.79h-1c0-.69-.28-1-1-1s-1,.26-1,1.1v2c0,.86.33,1.1,1.06,1.1s1-.24,1-1v-.76h-1v-.78h2v3.24H90l-.16-.44a1.7,1.7,0,0,1-1.37.53C87.09,31.84,86.48,31.28,86.48,29.83Z"/>
			<path class="cls-1" d="M199,.41a2.81,2.81,0,0,1,.49,1,3.77,3.77,0,0,1,.21,1.25v.47h-1.45a10.42,10.42,0,0,1-1.06-.06,4.46,4.46,0,0,1-.95-.18l-.17.19.41,2.17a6.65,6.65,0,0,1,.78-.11l.85,0h1.59V7.67h-1.45a10.42,10.42,0,0,1-1.06-.06,4.46,4.46,0,0,1-.95-.18l-.17.19.41,2.17a6.65,6.65,0,0,1,.78-.11l.85,0h1.59v3.12l3-.29V1.8L202.8.62l-3.63-.5Z"/>
			<path class="cls-1" d="M195.83,2.29,196,1.11,192.52.69l-.17.29a2.07,2.07,0,0,1,.44.86A4.83,4.83,0,0,1,193,3.23v1.2h-4.91v-2l.2-1.17L184.75.85l-.17.29a1.73,1.73,0,0,1,.24.44,3.34,3.34,0,0,1,.2.67c.06.25.1.53.14.81a8,8,0,0,1,0,.82v6.56a.74.74,0,0,0,.27.53.8.8,0,0,0,.53.19h9.83Zm-2.86,7h-4.91V6.33H193Z"/>
			<path class="cls-1" d="M200.32,13.71a8.11,8.11,0,0,0-2.24-.86,12.75,12.75,0,0,0-5.5,0,8.18,8.18,0,0,0-2.25.86,4.62,4.62,0,0,0-1.51,1.35,3.3,3.3,0,0,0,0,3.68,4.67,4.67,0,0,0,1.51,1.37,8.18,8.18,0,0,0,2.25.86,12.75,12.75,0,0,0,5.5,0,8.11,8.11,0,0,0,2.24-.86,4.67,4.67,0,0,0,1.51-1.37,3.3,3.3,0,0,0,0-3.68A4.62,4.62,0,0,0,200.32,13.71Zm-1.17,4.15a2.67,2.67,0,0,1-.88.73,4.83,4.83,0,0,1-1.33.45,9.31,9.31,0,0,1-1.62.14,8.93,8.93,0,0,1-1.58-.14,5,5,0,0,1-1.33-.45,2.75,2.75,0,0,1-.9-.73,1.56,1.56,0,0,1-.34-1,1.39,1.39,0,0,1,.34-.93,2.68,2.68,0,0,1,.9-.7,5,5,0,0,1,1.33-.43,8.07,8.07,0,0,1,1.58-.15,8.41,8.41,0,0,1,1.62.15,4.83,4.83,0,0,1,1.33.43,2.6,2.6,0,0,1,.88.7,1.43,1.43,0,0,1,.33.93A1.61,1.61,0,0,1,199.15,17.86Z"/>
			<path class="cls-1" d="M221.31,2.76V12.82H218.5c-.32,0-.68,0-1.07-.05a4.52,4.52,0,0,1-1-.19l-.17.2.41,2.16a7.32,7.32,0,0,1,.78-.11l.86,0h2.95v1.91l3-.49V1.79l.14-1.17-3.63-.5-.17.29a2.66,2.66,0,0,1,.49,1A4.43,4.43,0,0,1,221.31,2.76Z"/>
			<path class="cls-1" d="M224.62,18.52a4.09,4.09,0,0,1-1.41.24h-9.93V16.69l.14-1.17-3.56-.39-.16.29a2.47,2.47,0,0,1,.45,1,5,5,0,0,1,.17,1.31V20a.68.68,0,0,0,.26.53.82.82,0,0,0,.53.19H223.3c.23,0,.48,0,.75,0s.5.05.7.08V18.64Z"/>
			<path class="cls-1" d="M211.45,15l3-.24v-2.9h1.09a13.48,13.48,0,0,0,3.23-.32,7,7,0,0,0,1.67-.57l-.24-2a5.8,5.8,0,0,1-1.85.63,16.13,16.13,0,0,1-3.2.26h-6.65a8.75,8.75,0,0,1-1.25-.08,4.27,4.27,0,0,1-1-.23l-.28.17.4,2.28c.52-.06,1-.1,1.35-.12s.82,0,1.3,0h2.46Z"/>
			<path class="cls-1" d="M208.88,7.7a6.56,6.56,0,0,0,1.86.9,7.34,7.34,0,0,0,2.21.32,7.14,7.14,0,0,0,2.18-.32A6.51,6.51,0,0,0,217,7.7a4.52,4.52,0,0,0,1.25-1.37,3.43,3.43,0,0,0,.45-1.73,3.53,3.53,0,0,0-.45-1.74A4.44,4.44,0,0,0,217,1.48a6.27,6.27,0,0,0-1.83-.91A6.86,6.86,0,0,0,213,.23a7,7,0,0,0-2.21.34,6.32,6.32,0,0,0-1.86.91,4.36,4.36,0,0,0-1.26,1.38,3.54,3.54,0,0,0-.46,1.74,3.44,3.44,0,0,0,.46,1.73A4.43,4.43,0,0,0,208.88,7.7Zm1.41-4a2.13,2.13,0,0,1,.62-.72,3.1,3.1,0,0,1,.92-.49A3.7,3.7,0,0,1,213,2.29a3.38,3.38,0,0,1,1.07.18,3.24,3.24,0,0,1,.9.49,2.25,2.25,0,0,1,.62.72,1.9,1.9,0,0,1,.22.92,1.81,1.81,0,0,1-.22.89,2.48,2.48,0,0,1-.62.72,2.78,2.78,0,0,1-.9.48,3.38,3.38,0,0,1-1.07.17,3.7,3.7,0,0,1-1.12-.17,2.68,2.68,0,0,1-.92-.48,2.34,2.34,0,0,1-.62-.72,1.81,1.81,0,0,1-.22-.89A1.9,1.9,0,0,1,210.29,3.68Z"/>
			<path class="cls-1" d="M134.84.41a2.81,2.81,0,0,1,.49,1,4.42,4.42,0,0,1,.2,1.35V8h-1.72V1.91L134,.73,130.44.24l-.17.29a2.73,2.73,0,0,1,.5,1,4.74,4.74,0,0,1,.2,1.35v9.4a3.69,3.69,0,0,1-1.26.48,7.53,7.53,0,0,1-1.52.17h-4.72V4.56h3.86c.24,0,.49,0,.75,0s.5.05.69.08V2.45l-.12-.12a4.19,4.19,0,0,1-1.42.24h-5a7.42,7.42,0,0,1-1-.08,5.05,5.05,0,0,1-.87-.21l-.29.24a6.16,6.16,0,0,1,.32,1,6.07,6.07,0,0,1,.11,1.06V14.2a.74.74,0,0,0,.27.53.88.88,0,0,0,.53.19h7a7,7,0,0,0,1.65-.16,4.7,4.7,0,0,0,1-.34v6.82l2.84-.48V9.93h1.72V21.47l2.84-.47V1.63l.15-1L135,.12Z"/>
			<path class="cls-1" d="M112.18.41a2.65,2.65,0,0,1,.5,1,4.74,4.74,0,0,1,.2,1.35V21.47l3-.49V1.79L116,.62l-3.64-.5Z"/>
			<path class="cls-1" d="M108.5,4.2a5.88,5.88,0,0,0-1.91-1.39,5.47,5.47,0,0,0-2.34-.5,5.4,5.4,0,0,0-2.34.5A6,6,0,0,0,100,4.2a6.87,6.87,0,0,0-1.28,7.08,6.59,6.59,0,0,0,1.28,2,6.11,6.11,0,0,0,1.91,1.38,5.41,5.41,0,0,0,2.34.51,5.47,5.47,0,0,0,2.34-.51,6,6,0,0,0,1.91-1.38,6.62,6.62,0,0,0,1.29-2A6.8,6.8,0,0,0,108.5,4.2Zm-1.39,6.26a4.68,4.68,0,0,1-.68,1.36,3.54,3.54,0,0,1-1,.91,2.21,2.21,0,0,1-1.18.34,2.18,2.18,0,0,1-1.18-.34,3.44,3.44,0,0,1-1-.91,4.67,4.67,0,0,1-.67-1.36,5.36,5.36,0,0,1-.25-1.67,5.46,5.46,0,0,1,.25-1.7,4.66,4.66,0,0,1,.67-1.38,3.25,3.25,0,0,1,1-.93,2.27,2.27,0,0,1,1.18-.34,2.3,2.3,0,0,1,1.18.34,3.34,3.34,0,0,1,1,.93,4.68,4.68,0,0,1,.68,1.38,5.77,5.77,0,0,1,.24,1.7A5.67,5.67,0,0,1,107.11,10.46Z"/>
			<path class="cls-1" d="M157.3,14.59c-.23,0-.49,0-.76,0H145.72c-.34,0-.67,0-1-.1a3,3,0,0,1-.77-.19l-.29.17.4,2.3c.23-.05.49-.09.78-.13a6.41,6.41,0,0,1,.85-.06h9.56v4.86l2.83-.4v-6.4l-.17-.15A3.53,3.53,0,0,1,157.3,14.59Z"/>
			<path class="cls-1" d="M160,11.14a3.52,3.52,0,0,1-.9,0h-6.62V9.11H158V.86l-.12-.12a4.18,4.18,0,0,1-1.41.24H146A7.42,7.42,0,0,1,144.94.9a5.15,5.15,0,0,1-.86-.21l-.29.24a6,6,0,0,1,.31,1A7.24,7.24,0,0,1,144.22,3V8.39a.69.69,0,0,0,.26.52.83.83,0,0,0,.53.2h4.63v2.08H143a6.84,6.84,0,0,1-1-.11,3.45,3.45,0,0,1-.79-.2l-.29.17.41,2.27a8.23,8.23,0,0,1,.83-.1c.31,0,.6,0,.87,0h16.06l.84,0a6.81,6.81,0,0,1,.82.1V11.07l-.12-.12A4.32,4.32,0,0,1,160,11.14Zm-12.94-4V3h8.1V7.12Z"/>
			<path class="cls-1" d="M177.8,14.36a8.49,8.49,0,0,0-2.25-.75,14.38,14.38,0,0,0-2.76-.25,13.89,13.89,0,0,0-2.72.25,8.42,8.42,0,0,0-2.24.75,4.56,4.56,0,0,0-1.53,1.25,2.76,2.76,0,0,0-.56,1.7A2.82,2.82,0,0,0,166.3,19a4.51,4.51,0,0,0,1.53,1.23,8.07,8.07,0,0,0,2.24.74,13.87,13.87,0,0,0,2.72.26,14.37,14.37,0,0,0,2.76-.26,8.15,8.15,0,0,0,2.25-.74A4.47,4.47,0,0,0,179.32,19a2.76,2.76,0,0,0,.56-1.73,2.69,2.69,0,0,0-.56-1.7A4.52,4.52,0,0,0,177.8,14.36Zm-1.14,3.84a2.25,2.25,0,0,1-.9.57,5.39,5.39,0,0,1-1.34.31,12,12,0,0,1-1.63.1,11.55,11.55,0,0,1-1.58-.1,5.42,5.42,0,0,1-1.33-.31,2.25,2.25,0,0,1-.9-.57,1.24,1.24,0,0,1-.34-.89,1.17,1.17,0,0,1,.34-.84,2.52,2.52,0,0,1,.9-.59,5.88,5.88,0,0,1,1.33-.33,11.53,11.53,0,0,1,1.58-.11,11.94,11.94,0,0,1,1.63.11,5.84,5.84,0,0,1,1.34.33,2.52,2.52,0,0,1,.9.59,1.24,1.24,0,0,1,.32.84A1.31,1.31,0,0,1,176.66,18.2Z"/>
			<path class="cls-1" d="M181.57,10.29a4.12,4.12,0,0,1-.9.05h-6.44V8.46h4.09c.22,0,.47,0,.74,0a5.75,5.75,0,0,1,.7.09V6.36l-.12-.12a4.19,4.19,0,0,1-1.42.24h-9.67V2.93h9.55l.76,0,.68.09V.82L179.42.7A4.18,4.18,0,0,1,178,.94H167.5a6.23,6.23,0,0,1-1.06-.09,4.39,4.39,0,0,1-.86-.2l-.29.24a6,6,0,0,1,.31,1,6.1,6.1,0,0,1,.12,1.07V7.75a.7.7,0,0,0,.27.52.8.8,0,0,0,.52.19h4.88v1.88h-6.78c-.32,0-.65-.06-1-.11a4.18,4.18,0,0,1-.79-.21l-.28.17.4,2.28a6,6,0,0,1,.83-.11c.31,0,.6,0,.88,0h16.06l.83,0a6.86,6.86,0,0,1,.82.09V10.22l-.12-.12A6.08,6.08,0,0,1,181.57,10.29Z"/>
		</g>
	</g>
</svg>