<svg xmlns="http://www.w3.org/2000/svg" width="36" height="36" viewBox="0 0 36 36">
    <defs>
        <clipPath id="l6kzx5vxma">
            <path data-name="사각형 2131" transform="translate(-350 2490)" style="stroke:#707070;fill:#fff" d="M0 0h36v36H0z"/>
        </clipPath>
    </defs>
    <g transform="translate(-4 -3)" style="clip-path:url(#l6kzx5vxma)">
        <g data-name="사각형 1863" transform="translate(13 6)" style="stroke:#231f20;stroke-linecap:round;stroke-linejoin:round;fill:#ecf7ff">
            <rect width="18" height="30" rx="2" style="stroke:none"/>
            <rect x=".5" y=".5" width="17" height="29" rx="1.5" style="fill:none"/>
        </g>
        <rect data-name="사각형 1680" width="10" height="2" rx="1" transform="translate(17 26.25)" style="fill:#3cb4e7"/>
        <path data-name="패스 2225" d="M5 12a1.2 1.2 0 0 1-.928-.451l-.01-.012L.983 7.479l-.01-.013A4.715 4.715 0 0 1 0 4.606 4.821 4.821 0 0 1 5 0a4.821 4.821 0 0 1 5 4.606 4.714 4.714 0 0 1-.972 2.858l-.011.015-3.08 4.058-.01.012A1.2 1.2 0 0 1 5 12" transform="translate(17 14.25)" style="stroke:#231f20;stroke-linecap:round;stroke-linejoin:round;fill:#fff"/>
        <circle data-name="타원 64" cx="3" cy="3" r="3" transform="translate(19 16.25)" style="fill:#3cb4e7"/>
        <path data-name="사각형 2322" d="M0 0h10v1a1 1 0 0 1-1 1H1a1 1 0 0 1-1-1V0z" transform="translate(17 6.5)" style="fill:#231f20"/>
        <rect data-name="사각형 2329" width="6" height="1" rx=".5" transform="translate(19.188 33.5)" style="fill:#231f20"/>
    </g>
</svg>
