<svg xmlns="http://www.w3.org/2000/svg" width="36" height="36" viewBox="0 0 36 36">
    <defs>
        <clipPath id="v7966i3iua">
            <path data-name="사각형 2740" style="fill:#fff;stroke:#707070" d="M0 0h36v36H0z"/>
        </clipPath>
    </defs>
    <g data-name="그룹 4080">
        <g data-name="마스크 그룹 114" style="clip-path:url(#v7966i3iua)">
            <g data-name="그룹 3888">
                <path data-name="패스 37885" d="M12.074 0a3.226 3.226 0 0 1 3.259 3.191v9.574A7.258 7.258 0 0 1 8 19.947" transform="translate(2.98 5.832)" style="stroke:#231f20;fill:none"/>
                <path data-name="패스 37886" d="M11.259 0A3.226 3.226 0 0 0 8 3.191v9.574a7.3 7.3 0 0 0 6.491 7.135 6.484 6.484 0 0 0 .842.047" transform="translate(-4.353 5.832)" style="stroke:#231f20;fill:none"/>
            </g>
            <g data-name="사각형 2657" transform="translate(6.381 3.647)" style="fill:#bbc0e2;stroke:#231f20">
                <rect width="3.759" height="4.503" rx="1" style="stroke:none"/>
                <rect x=".5" y=".5" width="2.759" height="3.503" rx=".5" style="fill:none"/>
            </g>
            <g data-name="사각형 2658" transform="translate(11.82 3.647)" style="fill:#bbc0e2;stroke:#231f20">
                <rect width="3.759" height="4.503" rx="1" style="stroke:none"/>
                <rect x=".5" y=".5" width="2.759" height="3.503" rx=".5" style="fill:none"/>
            </g>
            <g data-name="타원 132" transform="translate(25.262 10.15)" style="fill:#bbc0e2;stroke:#231f20">
                <circle cx="2.759" cy="2.759" r="2.759" style="stroke:none"/>
                <circle cx="2.759" cy="2.759" r="2.259" style="fill:none"/>
            </g>
            <path data-name="패스 37884" d="M-1417 11431.825s.843 5.021 5.564 4.89 6.473-4.647 6.563-4.89a5.033 5.033 0 0 0-1.32-4.275c-1.722-1.983-1.806-7.229 3.635-8.5" transform="translate(1427.98 -11405.592)" style="stroke-linecap:round;stroke:#222;stroke-linejoin:round;fill:none"/>
            <ellipse data-name="타원 128" cx="6.898" cy="6.755" rx="6.898" ry="6.755" transform="translate(20.203 20.49)" style="fill:#7670b3"/>
            <g data-name="그룹 4066">
                <g data-name="타원 141" style="stroke:#f5f5f5;stroke-linecap:round;fill:none" transform="translate(22.962 23.192)">
                    <ellipse cx="3.63" cy="3.555" rx="3.63" ry="3.555" style="stroke:none"/>
                    <ellipse cx="3.63" cy="3.555" rx="3.13" ry="3.055" style="fill:none"/>
                </g>
                <path data-name="선 215" transform="translate(29.153 29.254)" style="stroke:#f5f5f5;stroke-linecap:round;fill:none" d="M1.628 1.594 0 0"/>
            </g>
        </g>
    </g>
</svg>
