<svg xmlns="http://www.w3.org/2000/svg" width="36" height="36" viewBox="0 0 36 36">
    <defs>
        <clipPath id="vb8nygcwla">
            <path data-name="사각형 2683" transform="translate(409 824)" style="fill:#fff;stroke:#707070" d="M0 0h36v36H0z"/>
        </clipPath>
    </defs>
    <g data-name="그룹 4056" transform="translate(-407 -824.107)" style="clip-path:url(#vb8nygcwla)">
        <path data-name="패스 37872" d="M-1417 11433.631s1.059 5.731 7 5.581a9.369 9.369 0 0 0 8.251-5.581 5.368 5.368 0 0 0-1.659-4.88c-2.165-2.263-2.27-8.25 4.57-9.706" transform="translate(1838.421 -10583)" style="stroke-linecap:round;stroke-linejoin:round;stroke:#231f20;fill:none"/>
        <g data-name="사각형 2537" transform="translate(412.421 828)" style="fill:#ecf7ff;stroke:#231f20">
            <rect width="18" height="21" rx="2" style="stroke:none"/>
            <rect x=".5" y=".5" width="17" height="20" rx="1.5" style="fill:none"/>
        </g>
        <rect data-name="사각형 2538" width="12" height="13" rx="2" transform="translate(415.421 833)" style="fill:#3cb4e7"/>
        <g data-name="사각형 2539" style="fill:#ecf7ff;stroke:#231f20">
            <path d="M0 0h10v2a2 2 0 0 1-2 2H2a2 2 0 0 1-2-2V0z" style="stroke:none" transform="translate(416.421 848)"/>
            <path d="M.5.5h9V2A1.5 1.5 0 0 1 8 3.5H2A1.5 1.5 0 0 1 .5 2V.5z" style="fill:none" transform="translate(416.421 848)"/>
        </g>
    </g>
</svg>
