<svg xmlns="http://www.w3.org/2000/svg" xmlns:xlink="http://www.w3.org/1999/xlink" viewBox="0 0 310.28 93.93"><defs><style>.cls-1{fill:#00583d;}.cls-2{fill:url(#linear-gradient);}.cls-3{fill:url(#linear-gradient-2);}</style><linearGradient id="linear-gradient" x1="211.78" y1="-0.54" x2="187.54" y2="71.39" gradientUnits="userSpaceOnUse"><stop offset="0" stop-color="#94d1ca"/><stop offset="0.05" stop-color="#74c7c0"/><stop offset="0.12" stop-color="#51bcb4"/><stop offset="0.19" stop-color="#33b2ab"/><stop offset="0.26" stop-color="#1daba3"/><stop offset="0.34" stop-color="#0ca69e"/><stop offset="0.43" stop-color="#03a39b"/><stop offset="0.56" stop-color="#00a29a"/><stop offset="0.63" stop-color="#04a39b"/><stop offset="0.7" stop-color="#10a79f"/><stop offset="0.78" stop-color="#25aea6"/><stop offset="0.85" stop-color="#41b7af"/><stop offset="0.92" stop-color="#66c2bb"/><stop offset="1" stop-color="#92d0c9"/><stop offset="1" stop-color="#94d1ca"/></linearGradient><linearGradient id="linear-gradient-2" x1="162.49" y1="0.18" x2="152.21" y2="30.72" gradientUnits="userSpaceOnUse"><stop offset="0" stop-color="#94d1ca"/><stop offset="0.58" stop-color="#3bb5ad"/><stop offset="1" stop-color="#00a29a"/></linearGradient></defs><g id="레이어_2" data-name="레이어 2"><g id="레이어_1-2" data-name="레이어 1"><path class="cls-1" d="M64.18,2H85.43v50.6c0,6.4,1.26,11.89,10,11.89,7.65,0,9.9-4.86,9.9-11.89V2h21.25v41C126.58,63.86,117,73,95.43,73,75.34,73,64.18,65.3,64.18,43Z"/><path class="cls-1" d="M56.4,10.47V2H0V58.27C0,65.19,5.38,70,12.77,70.1H56.4V61.65H21.25V38.13H55.48V29.68H21.25V10.47Z"/><path class="cls-1" d="M246.14,42.51C246.3,65.17,257.81,73,278.37,73c22.19,0,30.89-10,31.91-25.65H288.59v4.94c0,7.24-2.32,12.26-10.22,12.26-9,0-10.31-5.66-10.31-12.26V20.72c0-6.59,1.3-12.26,10.31-12.26,7.9,0,10.22,5,10.22,12.26v5h21.69a35,35,0,0,0-3.64-13.28C301.62,3.54,291.84,0,278.37,0c-20.68,0-32.19,7.88-32.23,30.83h0Z"/><path class="cls-1" d="M226.81,5.19a6.4,6.4,0,0,0-1.09-2.11c-1.65-1.67-5.17-1.8-6.57,2.66l-6.74,22.17,10.8,36.74c.83,2.79,2.74,5.45,6.91,5.45h15.75Z"/><path class="cls-1" d="M175.91,5.19a9.81,9.81,0,0,0-1.09-2.11c-1.65-1.67-5.18-1.8-6.58,2.66L161.5,27.91l11,37.68a6.6,6.6,0,0,0,1.09,2.11c1.65,1.67,5.16,1.8,6.57-2.66l6.74-22.17Z"/><path class="cls-2" d="M219.09,0h-13c-4.68,0-6.68,2.43-7.73,5.21L180.19,65c-1.41,4.48-4.95,4.33-6.59,2.64,1.23,1.78,3.22,3.08,6.65,3.08h13c4.69,0,6.69-2.42,7.74-5.19l18.2-59.83c1.41-4.48,4.95-4.33,6.59-2.64C224.51,1.32,222.52,0,219.09,0Z"/><path class="cls-3" d="M136.17,93.93a6.64,6.64,0,0,0,6.75-5l25.32-83.2h0c1.41-4.48,4.95-4.33,6.6-2.64C173.6,1.32,171.61,0,168.18,0h-13c-4.69,0-6.69,2.43-7.74,5.21L120.39,93.93"/></g></g></svg>