<svg xmlns="http://www.w3.org/2000/svg" xmlns:xlink="http://www.w3.org/1999/xlink" viewBox="0 0 182.58 140.21"><defs><style>.cls-1{fill:#00583d;}.cls-2{fill:url(#radial-gradient);}.cls-3{fill:#fff;}</style><radialGradient id="radial-gradient" cx="7.25" cy="322.85" r="35.52" gradientTransform="translate(84.84 -217.41) scale(0.83)" gradientUnits="userSpaceOnUse"><stop offset="0.12" stop-color="#00827e"/><stop offset="0.64" stop-color="#00aca7"/></radialGradient></defs><g id="레이어_2" data-name="레이어 2"><g id="레이어_1-2" data-name="레이어 1"><path class="cls-1" d="M2.73,135v1.92H4.16l.37,0v.58l-.37,0H2.73v2.26h.45l.83,0a4.74,4.74,0,0,0,.74-.07v.56H1.82V134.5H4.71v.56L4.32,135,4,135l-.57,0Z"/><path class="cls-1" d="M6.74,139l-1.47-4.53h1c0,.1.06.22.1.37l.15.5L7,137.05l.55,1.62h.08c.41-1.14.75-2,1-2.75s.41-1.16.48-1.43h.66c.13.41.32,1,.55,1.65s.51,1.54.83,2.53h.09a4.75,4.75,0,0,1,.14-.46q.08-.22.15-.48l1-3.24h.73l-.22.52c-.07.18-.13.35-.19.54l-1.57,4.55h-.61c-.17-.5-.37-1.12-.6-1.84l-.78-2.53H9.24L7.69,140.1H7.07c0-.12-.08-.27-.14-.45S6.81,139.27,6.74,139Z"/><path class="cls-1" d="M18.07,136.78V134.5H19v5.6h-.91v-2.75l-1,0-.52,0-.51,0-1,0v2.75h-.91v-5.6H15v2.28l1,0h1Z"/><path class="cls-1" d="M22.59,134.35l2.46,5.75H24l-.75-1.93h-1.9c-.42,1.06-.69,1.7-.79,1.93h-.72l2.57-5.75Zm.45,3.36-.73-1.87-.76,1.87Z"/><path class="cls-1" d="M29,139l-1.47-4.53h1c0,.1.06.22.1.37l.15.5.48,1.69.55,1.62h.08c.42-1.14.75-2,1-2.75s.4-1.16.48-1.43H32l.55,1.65.84,2.53h.08c0-.15.09-.3.14-.46l.16-.48,1-3.24h.73l-.21.52c-.07.18-.14.35-.2.54l-1.56,4.55H33c-.17-.5-.36-1.12-.59-1.84s-.49-1.56-.79-2.53h-.06L30,140.1h-.63c0-.12-.08-.27-.13-.45Z"/><path class="cls-1" d="M39,140.2a3,3,0,0,1-2.19-.8,2.79,2.79,0,0,1-.83-2.1,2.82,2.82,0,0,1,.88-2.14,3.07,3.07,0,0,1,2.15-.78,3.38,3.38,0,0,1,2.13.66,2.56,2.56,0,0,1,1,2.14,2.88,2.88,0,0,1-.87,2.19A3.11,3.11,0,0,1,39,140.2Zm2.08-3a3.8,3.8,0,0,0-.1-.89,2,2,0,0,0-.36-.78,2,2,0,0,0-3-.05,2.87,2.87,0,0,0-.57,1.88,2.5,2.5,0,0,0,.61,1.77,1.94,1.94,0,0,0,3.06-.35A3.06,3.06,0,0,0,41.08,137.22Z"/><path class="cls-1" d="M48.27,134.49h.37c.13,1.2.24,2.26.36,3.19s.21,1.73.31,2.42h-1c-.09-1-.16-1.89-.22-2.53s-.11-1.08-.15-1.34c-.87,1.57-1.53,2.83-2,3.78h-.24l-.44-.93c-.11-.22-.28-.56-.52-1l-.89-1.74c0,.24-.05.53-.08.85s-.08.67-.12,1.06-.08.77-.1,1.08,0,.58,0,.79h-.77c.21-1.28.37-2.38.5-3.31s.23-1.69.29-2.3h.32c.46.91.86,1.7,1.21,2.37s.66,1.25.92,1.71c.24-.4.54-.94.91-1.62S47.75,135.46,48.27,134.49Z"/><path class="cls-1" d="M52.61,134.35l2.46,5.75H54l-.75-1.93h-1.9c-.43,1.06-.69,1.7-.79,1.93h-.72l2.56-5.75Zm.45,3.36-.73-1.87-.76,1.87Z"/><path class="cls-1" d="M60.79,134.49v5.61h-.38L56.74,136h-.1v4.11H56v-5.61h.47l3.58,3.92h.1v-3.92Z"/><path class="cls-1" d="M62.11,139h.08a1.5,1.5,0,0,0,1.34.75,1,1,0,0,0,.7-.34,1.11,1.11,0,0,0,.25-.75.9.9,0,0,0-.56-.89l-.62-.29-.57-.27a1.32,1.32,0,0,1-.64-1.25,1.45,1.45,0,0,1,.55-1.18,2,2,0,0,1,1.28-.39,1.69,1.69,0,0,1,1.17.39l-.22.66h-.08a1,1,0,0,0-1-.63.89.89,0,0,0-.63.23.87.87,0,0,0-.24.65.85.85,0,0,0,.51.84c.41.22.82.43,1.23.62a1.29,1.29,0,0,1,.72,1.19,1.74,1.74,0,0,1-.59,1.38,2.37,2.37,0,0,1-2.19.37,1.56,1.56,0,0,1-.62-.36Z"/><path class="cls-1" d="M69.64,134.49v3.14a2.34,2.34,0,0,0,.38,1.52,1.71,1.71,0,0,0,1.22.53c1.09,0,1.62-.72,1.57-2.13v-3.06h.65v3.27a3,3,0,0,1-.16,1,2,2,0,0,1-.48.77,2,2,0,0,1-.75.47,3,3,0,0,1-1,.16,2.57,2.57,0,0,1-1.78-.57,2.41,2.41,0,0,1-.59-1.86v-3.28Z"/><path class="cls-1" d="M79.89,134.49v5.61h-.38L75.84,136h-.1v4.11h-.61v-5.61h.47l3.58,3.92h.1v-3.92Z"/><path class="cls-1" d="M81.37,140.1v-5.6h.91v5.6Z"/><path class="cls-1" d="M87,135.88l.53-1.39h.75c-.08.15-.21.44-.4.88s-.45,1-.77,1.77-.6,1.42-.8,1.91-.33.84-.4,1H85.6c-.17-.36-.38-.81-.62-1.35s-.53-1.18-.84-1.91l-.7-1.62c-.17-.39-.28-.63-.34-.73h1l.13.34.18.46.54,1.44.84,2h.09s.12-.28.3-.74Z"/><path class="cls-1" d="M90.08,135v1.92h1.43l.37,0v.58l-.37,0H90.08v2.26h.46l.82,0a4.87,4.87,0,0,0,.75-.07v.56H89.18V134.5h2.88v.56l-.39-.06-.34,0-.57,0Z"/><path class="cls-1" d="M97.41,140.1H96.29c-.06-.08-.13-.19-.22-.3s-.18-.26-.3-.41l-1-1.25-.66-.78v2.74h-.91v-5.61h1.7c1.21,0,1.82.42,1.82,1.25a1.31,1.31,0,0,1-.53,1.08,2.41,2.41,0,0,1-1,.48Zm-3.27-5.23V137a3.35,3.35,0,0,0,.77,0,1.52,1.52,0,0,0,.71-.38,1,1,0,0,0,.27-.72c0-.53-.3-.85-.92-1a1.94,1.94,0,0,0-.36,0Z"/><path class="cls-1" d="M98.05,139h.08a1.48,1.48,0,0,0,1.33.75,1,1,0,0,0,.71-.34,1.11,1.11,0,0,0,.25-.75.92.92,0,0,0-.56-.89l-.62-.29-.57-.27A1.32,1.32,0,0,1,98,136a1.43,1.43,0,0,1,.55-1.18,2,2,0,0,1,1.28-.39,1.69,1.69,0,0,1,1.17.39l-.22.66h-.08a1.06,1.06,0,0,0-1-.63.88.88,0,0,0-.62.23,1,1,0,0,0,.26,1.49c.42.22.83.43,1.24.62a1.31,1.31,0,0,1,.72,1.19,1.74,1.74,0,0,1-.59,1.38,2.28,2.28,0,0,1-1.48.49,2.25,2.25,0,0,1-.71-.12,1.49,1.49,0,0,1-.62-.36Z"/><path class="cls-1" d="M102.31,140.1v-5.6h.91v5.6Z"/><path class="cls-1" d="M106.67,135v5.14h-.91V135c-.51,0-1.08,0-1.7.09v-.58h4.23v.58A14.8,14.8,0,0,0,106.67,135Z"/><path class="cls-1" d="M111.46,137.59v2.51h-.89v-2.36l-2-3.25h1.11q.22.48.75,1.38l.42.72a3.17,3.17,0,0,0,.25.37c.08-.07.57-.89,1.49-2.47h.77c-.23.31-.43.58-.58.82l-.9,1.46A3.65,3.65,0,0,0,111.46,137.59Z"/><path class="cls-1" d="M121.5,134.49h.38c.12,1.2.24,2.26.35,3.19s.22,1.73.32,2.42h-1c-.09-1-.16-1.89-.22-2.53s-.11-1.08-.15-1.34c-.88,1.57-1.53,2.83-2,3.78H119l-.44-.93c-.11-.22-.28-.56-.52-1s-.53-1-.89-1.74c0,.24-.05.53-.09.85s-.07.67-.11,1.06-.08.77-.1,1.08,0,.58,0,.79H116c.2-1.28.37-2.38.5-3.31s.23-1.69.29-2.3h.32c.45.91.86,1.7,1.21,2.37s.65,1.25.92,1.71c.23-.4.54-.94.91-1.62S121,135.46,121.5,134.49Z"/><path class="cls-1" d="M124.64,135v1.92h1.43l.37,0v.58l-.37,0h-1.43v2.26h.46l.82,0a4.76,4.76,0,0,0,.75-.07v.56h-2.93V134.5h2.88v.56l-.39-.06-.34,0-.57,0Z"/><path class="cls-1" d="M127.92,140.08V134.5h2.65a3.43,3.43,0,0,1,.44,0,2,2,0,0,1,1.12.45,2.48,2.48,0,0,1,.88,2,3,3,0,0,1-1,2.42,2.45,2.45,0,0,1-1.17.55,8.14,8.14,0,0,1-1.3.08Zm.91-5.08v4.53l.49,0h.34a3,3,0,0,0,1.3-.22,2.31,2.31,0,0,0,1.12-2.19,2.24,2.24,0,0,0-.66-1.66,2.61,2.61,0,0,0-1.76-.53h-.32Z"/><path class="cls-1" d="M134.14,140.1v-5.6h.91v5.6Z"/><path class="cls-1" d="M140.68,139.7a2.86,2.86,0,0,1-.83.38,3.58,3.58,0,0,1-1,.13,2.83,2.83,0,0,1-2-.82,2.89,2.89,0,0,1-.77-2.16,3.37,3.37,0,0,1,.2-1.15,2.52,2.52,0,0,1,.63-.93,3,3,0,0,1,1-.61,3.45,3.45,0,0,1,1.23-.21,4.73,4.73,0,0,1,.91.08,4,4,0,0,1,.93.29l-.21.77h-.17a1,1,0,0,0-.2-.22,2.43,2.43,0,0,0-.29-.21,1.61,1.61,0,0,0-.5-.19,2.09,2.09,0,0,0-.49-.05,1.51,1.51,0,0,0-.48.07,1.94,1.94,0,0,0-.42.17,1.83,1.83,0,0,0-.35.25,2.06,2.06,0,0,0-.29.3,2.67,2.67,0,0,0-.35.72,3.33,3.33,0,0,0-.12,1,2.63,2.63,0,0,0,.58,1.78,1.85,1.85,0,0,0,.59.46,2.13,2.13,0,0,0,.78.2,2.38,2.38,0,0,0,.91-.15,3,3,0,0,0,.89-.55Z"/><path class="cls-1" d="M144.11,134.35l2.45,5.75h-1l-.76-1.93h-1.89c-.43,1.06-.7,1.7-.8,1.93h-.71l2.56-5.75Zm.45,3.36-.73-1.87-.77,1.87Z"/><path class="cls-1" d="M148.36,134.49v5.14c.31,0,.63,0,1,0s.7-.06,1.09-.1v.56h-3v-5.59Z"/><path class="cls-1" d="M158,139.7a3,3,0,0,1-.83.38,3.63,3.63,0,0,1-1,.13,2.81,2.81,0,0,1-2.05-.82,2.85,2.85,0,0,1-.77-2.16,3.38,3.38,0,0,1,.19-1.15,2.65,2.65,0,0,1,.63-.93,3.13,3.13,0,0,1,1-.61,3.45,3.45,0,0,1,1.23-.21,4.56,4.56,0,0,1,.9.08,4,4,0,0,1,.94.29l-.21.77h-.17a.86.86,0,0,0-.21-.22,2.27,2.27,0,0,0-.28-.21,1.71,1.71,0,0,0-.5-.19,2.18,2.18,0,0,0-.5-.05,1.51,1.51,0,0,0-.48.07,1.68,1.68,0,0,0-.41.17,2.31,2.31,0,0,0-.36.25,1.58,1.58,0,0,0-.28.3,2.67,2.67,0,0,0-.35.72,3.33,3.33,0,0,0-.12,1,2.68,2.68,0,0,0,.57,1.78,2,2,0,0,0,.6.46,2,2,0,0,0,.78.2,2.37,2.37,0,0,0,.9-.15,2.91,2.91,0,0,0,.9-.55Z"/><path class="cls-1" d="M160.23,135v1.92h1.43l.37,0v.58l-.37,0h-1.43v2.26h.45l.82,0a4.76,4.76,0,0,0,.75-.07v.56h-2.93V134.5h2.88v.56l-.39-.06-.34,0-.57,0Z"/><path class="cls-1" d="M168.24,134.49v5.61h-.37L164.2,136h-.11v4.11h-.6v-5.61H164l3.58,3.92h.09v-3.92Z"/><path class="cls-1" d="M171.82,135v5.14h-.91V135c-.51,0-1.08,0-1.7.09v-.58h4.23v.58A14.93,14.93,0,0,0,171.82,135Z"/><path class="cls-1" d="M175.26,135v1.92h1.43l.37,0v.58l-.37,0h-1.43v2.26h.45l.82,0a4.76,4.76,0,0,0,.75-.07v.56h-2.93V134.5h2.88v.56l-.39-.06-.34,0-.57,0Z"/><path class="cls-1" d="M182.58,140.1h-1.11l-.22-.3-.31-.41-1-1.25-.66-.78v2.74h-.91v-5.61h1.71c1.21,0,1.81.42,1.81,1.25a1.29,1.29,0,0,1-.53,1.08,2.31,2.31,0,0,1-1,.48Zm-3.27-5.23V137a3.29,3.29,0,0,0,.77,0,1.48,1.48,0,0,0,.71-.38,1,1,0,0,0,.27-.72c0-.53-.3-.85-.91-1a1.94,1.94,0,0,0-.36,0Z"/><path class="cls-1" d="M138.8,34.83h0a50.88,50.88,0,0,0-6.4-12.92c-.49-.69-1-1.35-1.5-2-3.87-5-10.59-7.84-15.7-3,3-6.34-1.77-11.87-7.75-14-.74-.29-1.52-.57-2.33-.82A50.85,50.85,0,0,0,90.85,0h0A51.61,51.61,0,0,0,76.57,2.09c-.8.26-1.58.53-2.33.83-6,2.12-10.72,7.65-7.74,14-5.11-4.8-11.83-2-15.69,3.05-.51.61-1,1.26-1.51,1.95a51.45,51.45,0,0,0-6.39,12.93h0a51.3,51.3,0,0,0-2.42,14.22c0,.85,0,1.67.06,2.47.17,6.34,4,12.56,10.91,11.68-6.13,3.38-5.54,10.64-2,15.87.43.68.89,1.36,1.4,2A51.17,51.17,0,0,0,61.23,91.21h0A51,51,0,0,0,74,97.9c.8.27,1.6.51,2.37.71,6.09,1.79,13.17.11,14.49-6.77,1.31,6.88,8.4,8.56,14.48,6.76.78-.2,1.57-.43,2.37-.7a51.26,51.26,0,0,0,12.78-6.7h0a51.14,51.14,0,0,0,10.32-10.08c.5-.68,1-1.36,1.4-2,3.58-5.24,4.18-12.49-2-15.87,7,.87,10.74-5.35,10.91-11.69.05-.8.07-1.62.06-2.47A51.09,51.09,0,0,0,138.8,34.83ZM67.64,11.21C69,7.94,72.55,6.28,78.06,6.28c1,0,2,0,3.11.16,1.55.25,3,.47,4.39.64a47.42,47.42,0,0,0,5.29.39h0a46,46,0,0,0,5.29-.4c1.36-.16,2.84-.38,4.39-.64,1.09-.1,2.13-.16,3.11-.16,5.51,0,9,1.66,10.42,4.93.87,2.18.42,4.21-.85,6.88a39.22,39.22,0,0,0-44.71,0C67.22,15.42,66.77,13.39,67.64,11.21ZM46.4,60.38C43.72,58,43.22,54.19,44.93,49Q45.38,47.56,46,46c.72-1.4,1.38-2.74,2-4a46.63,46.63,0,0,0,2-4.9h0A44,44,0,0,0,51.27,32c.26-1.34.51-2.82.75-4.38a29,29,0,0,1,.81-3c1.7-5.24,4.36-8.07,7.9-8.39,2.35-.16,4.14.9,6.28,2.94A39.29,39.29,0,0,0,53.23,61.69C50.29,62.09,48.21,61.89,46.4,60.38Zm40.2,35.4c-3.06,1.82-6.87,1.1-11.33-2.14a30.43,30.43,0,0,1-2.42-2c-1.11-1.12-2.18-2.16-3.18-3.1a49.92,49.92,0,0,0-4-3.43h0a47.15,47.15,0,0,0-4.51-2.78c-1.2-.67-2.52-1.36-3.93-2.07a30.22,30.22,0,0,1-2.61-1.7C50.11,75.38,48.25,72,49,68.5c.57-2.28,2.14-3.66,4.76-5.07A39.35,39.35,0,0,0,90,89.66C89.42,92.59,88.6,94.52,86.6,95.78Zm4.26-7.14a38.26,38.26,0,1,1,38.26-38.26A38.31,38.31,0,0,1,90.86,88.64Zm41.83-20.15c.79,3.46-1.07,6.87-5.54,10.11-.78.57-1.66,1.14-2.6,1.7-1.41.7-2.73,1.4-3.93,2.06a46.25,46.25,0,0,0-4.51,2.79h0a49.92,49.92,0,0,0-4,3.43c-1,.94-2.07,2-3.18,3.1-.82.73-1.63,1.39-2.41,2-4.47,3.24-8.28,4-11.33,2.14-2-1.26-2.83-3.19-3.36-6.12a39.37,39.37,0,0,0,36.14-26.25C130.54,64.82,132.11,66.2,132.69,68.49Zm2.63-8.13c-1.81,1.51-3.89,1.71-6.83,1.31a39.25,39.25,0,0,0-13.8-42.51c2.14-2,3.94-3.1,6.28-2.94,3.54.32,6.2,3.14,7.91,8.38.3.93.57,1.94.81,3,.24,1.55.49,3,.75,4.37a42.79,42.79,0,0,0,1.26,5.15h0a46.63,46.63,0,0,0,2,4.9c.58,1.25,1.24,2.58,2,4,.43,1,.81,2,1.11,2.9C138.5,54.17,138,58,135.32,60.36Z"/><path class="cls-2" d="M111.74,70.37c.27-.27.52-.55.78-.83l-10.59-9.72,11.32,8.86c.24-.29.48-.59.7-.89l-11.32-8.87,12,8c.22-.31.43-.63.63-.94l-12-7.94,12.55,7c.2-.32.38-.65.56-1l-12.58-7,13.1,6c.16-.35.32-.69.47-1l-13.1-6,13.53,5c.14-.36.27-.71.39-1.07l-13.51-4.93,13.87,3.85c.11-.36.21-.72.31-1.09L105,53.79l14.13,2.76c.09-.37.16-.74.22-1.11L105.2,52.67l14.32,1.65c0-.38.1-.75.13-1.13l-14.31-1.65,14.4.52c0-.38,0-.76,0-1.14l-14.42-.52,14.42-.61c0-.38,0-.76,0-1.14l-14.42.62,14.33-1.75c0-.38-.08-.75-.14-1.12l-14.33,1.74,14.15-2.86h0c-.06-.38-.13-.75-.21-1.12h0L105,47l13.87-4h0c-.09-.37-.2-.74-.31-1.1h0l-13.85,4,13.5-5h0c-.13-.36-.26-.72-.4-1.07h0l-13.54,5,13.1-6.09h0c-.16-.35-.31-.69-.48-1h0l-13.09,6.08,12.57-7.09,0,0c-.18-.33-.36-.65-.56-1h0l-12.58,7.1,12-8.06,0,0-.63-.94h0l-12,8.07,11.31-9,0,0c-.22-.3-.45-.6-.69-.89l0,0-11.31,9,10.57-9.83,0,0c-.25-.28-.51-.55-.77-.83l0,0L101.1,40.17l9.76-10.62,0,0-.83-.77,0,0-9.76,10.63L109.16,28a.05.05,0,0,0,0,0l-.88-.7s0,0,0,0l-8.9,11.37,8-12,0-.05c-.31-.21-.62-.42-.94-.62l0,0-8,12,7-12.63,0-.06c-.32-.19-.65-.37-1-.55l0,.06-7,12.61,6-13.12,0-.07c-.34-.17-.68-.32-1-.47l0,.07L96.39,37l5-13.54s0-.05,0-.08q-.52-.21-1-.39a.2.2,0,0,0,0,.08l-5,13.55,3.87-13.9s0-.06,0-.09q-.54-.17-1.08-.3a.19.19,0,0,0,0,.09L94.22,36.37,97,22.19a.28.28,0,0,0,0-.09c-.36-.08-.73-.14-1.1-.21a.31.31,0,0,0,0,.08L93.1,36.16,94.76,21.8v-.09c-.37-.05-.74-.1-1.11-.13a.29.29,0,0,0,0,.09L92,36l.52-14.4a.31.31,0,0,0,0-.1l-1.12,0s0,.06,0,.1L90.84,36l-.61-14.43a.29.29,0,0,0,0-.09c-.37,0-.74,0-1.11,0a.31.31,0,0,0,0,.1L89.71,36,88,21.69a.36.36,0,0,0,0-.1c-.37,0-.74.08-1.11.14v.1l1.75,14.33L85.72,22a.42.42,0,0,0,0-.1l-1.09.22a.31.31,0,0,0,0,.1l2.86,14.14-4-13.87a.42.42,0,0,0,0-.1l-1.07.31a.18.18,0,0,0,0,.1l4,13.89-5-13.53,0-.1-1,.4a.44.44,0,0,0,0,.1l5,13.54L79.22,24l-.06-.08-1,.46,0,.1,6.09,13.08L77.18,25l-.06-.08c-.33.17-.65.36-1,.55a.36.36,0,0,0,0,.09l7.1,12.57-8.07-12-.06-.07-.92.63,0,.08,8.07,12-9-11.32-.07-.07c-.29.23-.59.46-.87.7l0,.08,9,11.31L71.62,28.9l-.07,0-.82.76,0,.07,9.84,10.57L70,30.48l-.06,0c-.26.27-.51.54-.76.82l0,.06,10.64,9.77-11.37-8.9-.07,0c-.24.29-.47.58-.69.88l.06.06L79.14,42l-12-8L67,34c-.21.31-.41.62-.61.94l.06.05,12,8-12.63-7-.07,0-.55,1a.18.18,0,0,0,.07,0l12.61,7-13.13-6-.08,0c-.16.34-.31.68-.46,1l.07,0,13.11,6L63.93,40l-.07,0c-.13.35-.26.71-.38,1.06l.06,0L77.1,46,63.2,42.15h-.08q-.16.54-.3,1.08l.07,0,13.9,3.87L62.63,44.35h-.07q-.12.55-.21,1.11h.06l14.16,2.77L62.24,46.59h-.06c0,.38-.1.75-.13,1.12h.06l14.34,1.66L62,48.85H62c0,.37,0,.75,0,1.13h0l14.42.52L62,51.12h-.05c0,.38,0,.76.05,1.13h0l14.42-.61L62.13,53.38h-.05c0,.38.09.75.14,1.12h.05l14.31-1.74L62.45,55.63h0c.07.37.14.74.23,1.11h0l14.14-2.86-13.87,4,0,0c.09.36.19.73.31,1.08h0l13.89-4L63.61,60h0c.13.35.26.7.4,1h0l13.53-5L64.44,62.13h0c.15.35.31.69.48,1h0L78,57.06,65.44,64.17h0c.18.34.37.66.56,1h0l12.56-7.09-12,8.05c.21.32.43.63.64.94L79.2,59,67.91,68c.23.3.46.6.7.89l11.3-9L69.35,69.72l.78.83,10.56-9.83L70.94,71.34c.28.26.55.52.84.77L81.52,61.5,72.64,72.84c.29.24.59.47.89.7L82.41,62.2l-8,12c.31.21.62.42.94.62l7.95-12-7,12.57c.33.19.66.38,1,.55l7-12.58-6,13.1,1,.47,6-13.1L80.45,77.37c.36.14.71.27,1.07.39l4.94-13.51L82.6,78.11c.36.1.72.21,1.09.3l3.86-13.86L84.79,78.67c.37.08.75.15,1.12.21l2.76-14.12L87,79.05c.37,0,.75.1,1.13.13l1.65-14.33-.52,14.42c.37,0,.75,0,1.13,0L90.94,65l.61,14.35,1.14,0-.62-14.38,1.74,14.29L94.94,79,93.2,64.74l2.86,14.1,1.11-.23L94.32,64.54l4,13.81L99.36,78l-4-13.84,5,13.48,1.07-.4-5-13.46,6.06,13c.34-.15.69-.31,1-.48l-6.06-13,7.06,12.53c.34-.18.66-.37,1-.56L98.5,62.77l8,11.92.94-.64-8-11.92,8.93,11.26c.3-.23.6-.46.89-.7l-8.94-11.27L110.12,72c.28-.25.56-.51.83-.78l-9.77-10.5Z"/><path class="cls-1" d="M62.05,34.14a.77.77,0,1,1-.77-.77A.77.77,0,0,1,62.05,34.14Z"/><path class="cls-1" d="M119.67,34.14a.77.77,0,1,0,.77-.77A.76.76,0,0,0,119.67,34.14Z"/><path class="cls-1" d="M63.08,28.59a1.47,1.47,0,0,1,.46-.36,1.41,1.41,0,0,1,.57-.14,1.69,1.69,0,0,1,1.14.38,1.69,1.69,0,0,1,.4.49,1.62,1.62,0,0,1,.19.56,1.44,1.44,0,0,1,0,.58,1.5,1.5,0,0,1-.26.52,1.31,1.31,0,0,1-.46.36,1.4,1.4,0,0,1-.56.14,1.71,1.71,0,0,1-.59-.07,1.77,1.77,0,0,1-.55-.31,1.65,1.65,0,0,1-.4-.48,1.69,1.69,0,0,1-.2-.57,1.37,1.37,0,0,1,0-.57A1.4,1.4,0,0,1,63.08,28.59Zm2,1.69a.69.69,0,0,0,.14-.3.73.73,0,0,0,0-.36,1,1,0,0,0-.14-.35,1.35,1.35,0,0,0-.27-.32,1.53,1.53,0,0,0-.37-.21,1.36,1.36,0,0,0-.38-.08,1,1,0,0,0-.35.07.68.68,0,0,0-.41.5.73.73,0,0,0,0,.36,1.07,1.07,0,0,0,.14.36,1.4,1.4,0,0,0,.28.32,1.53,1.53,0,0,0,.37.21,1,1,0,0,0,.37.07,1,1,0,0,0,.35-.07A.6.6,0,0,0,65.13,30.28Zm3.26-.85-.31.53L64.52,27a1.05,1.05,0,0,0-.29-.17.74.74,0,0,0-.27-.06l0-.08.57-.53.2.22Z"/><path class="cls-1" d="M68.21,23.43l.66-.54.13-.13a.71.71,0,0,0,.1-.14h.05l.33.41,0,0-.08.05-.09.06-.07.06-.15.12a1.21,1.21,0,0,1,.42.13.92.92,0,0,1,.35.27,1,1,0,0,1,.19.36,1.11,1.11,0,0,1,.06.4,1.51,1.51,0,0,1-.09.41,1.17,1.17,0,0,1-.22.37l.3.37.22-.19a4.34,4.34,0,0,0,.61-.58,1.12,1.12,0,0,0,.26-.4l-1.69-2.06a1.1,1.1,0,0,0-.25-.23A.66.66,0,0,0,69,22.1V22l.66-.41.16.25,1,1.27.28-.22.15-.14.11-.16h.07l.33.41-.16.1-.17.13-.3.25,1.67,2-.4.46-.9-1.1a1.57,1.57,0,0,1-.25.35,3.66,3.66,0,0,1-.56.53l-1.29,1.07-.25.2-.24.24-.43-.37,0-.08.22-.11a2.27,2.27,0,0,0,.25-.18l.62-.51-.3-.36a1.35,1.35,0,0,1-.82.15,1.06,1.06,0,0,1-.39-.13,1,1,0,0,1-.32-.26,1.2,1.2,0,0,1-.2-.39,1.1,1.1,0,0,1,0-.44l-.1.08-.17.16a.93.93,0,0,0-.13.15l-.44-.37,0-.08a.69.69,0,0,0,.2-.09,1.1,1.1,0,0,0,.21-.14l.63-.52-.12-.15a.44.44,0,0,0-.15-.12.51.51,0,0,0-.18-.09v-.07l.61-.37.13.17Zm.12.64a.79.79,0,0,0-.19.22.84.84,0,0,0-.08.27.69.69,0,0,0,0,.28.71.71,0,0,0,.13.26.54.54,0,0,0,.21.16.76.76,0,0,0,.54,0,.89.89,0,0,0,.25-.14,1.07,1.07,0,0,0,.2-.23.86.86,0,0,0,.09-.27.62.62,0,0,0,0-.27.68.68,0,0,0-.12-.24.58.58,0,0,0-.23-.18.61.61,0,0,0-.26-.08.73.73,0,0,0-.29,0A.6.6,0,0,0,68.33,24.07Z"/><path class="cls-1" d="M78.17,22.38l-.48.38-1-1.85-.47.25-.19.11-.15.11-.26-.32a1.61,1.61,0,0,1,0,.44,1.3,1.3,0,0,1-.14.39,1.36,1.36,0,0,1-.23.34,1.23,1.23,0,0,1-.34.26,1.29,1.29,0,0,1-.57.16,1.35,1.35,0,0,1-.56-.09,1.36,1.36,0,0,1-.5-.3,1.57,1.57,0,0,1-.39-.49,1.62,1.62,0,0,1-.19-.6,1.67,1.67,0,0,1,0-.59,1.64,1.64,0,0,1,.24-.52,1.36,1.36,0,0,1,.45-.37,1.25,1.25,0,0,1,.56-.16,1.35,1.35,0,0,1,.56.09,1.32,1.32,0,0,1,.51.3,1.69,1.69,0,0,1,.39.49,1.84,1.84,0,0,1,.17.48.86.86,0,0,0,.21-.07l.22-.1.44-.24-.52-1-.48.25-.18.11-.16.11-.34-.42,0-.06a.9.9,0,0,0,.22-.07l.24-.11.45-.24-.21-.38a1.05,1.05,0,0,0-.2-.27.58.58,0,0,0-.22-.16v-.09l.73-.27.11.28ZM74.66,22a.66.66,0,0,0,.24-.23.7.7,0,0,0,.13-.32,1,1,0,0,0,0-.38,1.2,1.2,0,0,0-.13-.39,1.28,1.28,0,0,0-.26-.34,1,1,0,0,0-.31-.22.74.74,0,0,0-.67,0,.75.75,0,0,0-.24.23.82.82,0,0,0-.12.32,1,1,0,0,0,0,.38,1.43,1.43,0,0,0,.39.74A1.21,1.21,0,0,0,74,22a1,1,0,0,0,.33.08A.73.73,0,0,0,74.66,22Z"/><path class="cls-1" d="M78.93,17.68l-.21.08-.18.09-.26-.51,0-.06h.22l.25-.05,2.09-.63.18-.07.14-.09,0,0,.16.52-.16,0-.18,0-.85.26.06.19a3.39,3.39,0,0,0,.26.61,1.57,1.57,0,0,0,.39.46,1.77,1.77,0,0,0,.55.34,3.36,3.36,0,0,0,.75.21l-.24.53a3.39,3.39,0,0,1-1-.33,2.42,2.42,0,0,1-.66-.51,2.58,2.58,0,0,1-.26.83,3,3,0,0,1-.61.82l-.5-.31a3.35,3.35,0,0,0,.51-.59,2,2,0,0,0,.26-.58,1.7,1.7,0,0,0,.06-.6,3,3,0,0,0-.13-.64l-.08-.26Zm3.9.24.79,2.61-.55.27-1.34-4.42a1,1,0,0,0-.14-.3.74.74,0,0,0-.19-.2l0-.08.77-.12,0,.28.45,1.5.34-.11.19-.07a.62.62,0,0,0,.16-.1l.06,0,.16.52-.19,0-.21,0Z"/><path class="cls-1" d="M90,19.66l-.58.15L89.13,17,88.6,17l.27,2.68-.59.16-.16-1.68a.84.84,0,0,1-.25.11,1.65,1.65,0,0,1-.4.08l-1.72.17a.22.22,0,0,1-.13,0,.2.2,0,0,1-.08-.12L85.31,16a.83.83,0,0,0-.06-.26.89.89,0,0,0-.1-.23l.07-.07.22,0h.26l1.21-.11a1.22,1.22,0,0,0,.34-.1l0,0,0,.55H87l-1.06.1.2,2.06,1.28-.13a1.3,1.3,0,0,0,.37-.08,1.4,1.4,0,0,0,.3-.14l-.23-2.31a1.32,1.32,0,0,0-.08-.33.7.7,0,0,0-.15-.23l0-.08.77,0v.29l.15,1.49.52-.05L89,15.22a1,1,0,0,0-.09-.33.7.7,0,0,0-.14-.23l0-.07.78,0v.29Z"/><path class="cls-1" d="M93.77,15.27l.88.09h.19l.16,0,0,0-.06.53-.15,0-.19,0-.22,0a1.26,1.26,0,0,1,.22.39,1,1,0,0,1,.05.46.93.93,0,0,1-.15.47,1.06,1.06,0,0,1-.33.37,1.31,1.31,0,0,1-.46.22,1.38,1.38,0,0,1-.54,0,1.73,1.73,0,0,1-.52-.14,1.35,1.35,0,0,1-.4-.31,1.24,1.24,0,0,1-.24-.42A1,1,0,0,1,92,16.4a1,1,0,0,1,.14-.44,1.09,1.09,0,0,1,.29-.35h-.57l0-.56.08,0,.2.08.25.05.84.08,0-.23a.61.61,0,0,0,0-.19,1.07,1.07,0,0,0-.07-.19l.05-.06.69.17,0,.21ZM95,20.09l.13-1.33-2.46-.24h-.4l0-.58.08,0,.19.06.24.05,2.67.26.18,0h.16l0,0-.16,1.71ZM93.4,15.77a.75.75,0,0,0-.3,0,.82.82,0,0,0-.26.14.65.65,0,0,0-.18.22.75.75,0,0,0-.09.3.72.72,0,0,0,.17.55.55.55,0,0,0,.22.18.75.75,0,0,0,.3.09.77.77,0,0,0,.3,0,.91.91,0,0,0,.26-.13.79.79,0,0,0,.28-.51.8.8,0,0,0,0-.31.73.73,0,0,0-.14-.26.84.84,0,0,0-.23-.18A.66.66,0,0,0,93.4,15.77Zm2.48,1.08-.12,1.23h-.61l.26-2.6a1.32,1.32,0,0,0,0-.34.65.65,0,0,0-.1-.25l0-.07.76.18-.07.29-.1,1.08.35,0h.21l.19,0,0,.05,0,.53-.19,0a1.52,1.52,0,0,0-.21,0Z"/><path class="cls-1" d="M102.31,20.6l-.16.52L102,21l-.2-.06-3.63-1.1-.21-.05-.2,0,.07-.57h.08l.17.1.22.1.61.18.35-1.14a1.63,1.63,0,0,0,0-.35.55.55,0,0,0,0-.25l.06-.05.71.31-.1.21-.44,1.45.62.18.36-1.18a1.1,1.1,0,0,0,0-.35.54.54,0,0,0,0-.24l.06-.06.71.32-.1.21-.44,1.48,1.23.37.22.06h.17Zm-2.94-4-.18,0,.07-.58.08,0a.7.7,0,0,0,.18.11,1.17,1.17,0,0,0,.24.09l2.69.82.21,0a.57.57,0,0,0,.18,0l0,.05,0,.15-.18.55c-.08.26-.16.5-.24.73s-.16.43-.23.6a5.19,5.19,0,0,1-.23.57l-.64-.07c.07-.15.14-.32.21-.49s.13-.32.2-.51a6,6,0,0,0,.2-.6l.19-.63-2.48-.75Z"/><path class="cls-1" d="M107,24.23l-.58-.19.68-1.28a2.07,2.07,0,0,1-.42-.1,4.23,4.23,0,0,1-.72-.32l-1.52-.81-.28-.14a3.24,3.24,0,0,0-.31-.13l.18-.55h.08a1.12,1.12,0,0,0,.19.16l.26.17,1.53.81a5,5,0,0,0,.78.35,1.36,1.36,0,0,0,.48.09L108.58,20a1,1,0,0,0,.11-.31.54.54,0,0,0,0-.28l.07,0,.63.46-.17.24Zm.1-5.54a1.54,1.54,0,0,1,.44.36,1.45,1.45,0,0,1,.26.47,1.54,1.54,0,0,1,.06.53,1.41,1.41,0,0,1-.15.52,1.39,1.39,0,0,1-.35.41,1.17,1.17,0,0,1-.47.24,1.38,1.38,0,0,1-.54.05,1.73,1.73,0,0,1-.53-.17,1.47,1.47,0,0,1-.43-.35,1.22,1.22,0,0,1-.25-.46,1.31,1.31,0,0,1-.07-.52,1.24,1.24,0,0,1,.15-.53,1.43,1.43,0,0,1,.35-.42,1.61,1.61,0,0,1,.47-.24,1.63,1.63,0,0,1,.54,0A1.37,1.37,0,0,1,107.09,18.69Zm-.25.46a.61.61,0,0,0-.3-.08.78.78,0,0,0-.3,0,1.12,1.12,0,0,0-.28.16.9.9,0,0,0-.21.27.75.75,0,0,0-.1.31,1.13,1.13,0,0,0,0,.32.87.87,0,0,0,.14.27.75.75,0,0,0,.24.19.71.71,0,0,0,.31.1.8.8,0,0,0,.31,0,.85.85,0,0,0,.28-.15.86.86,0,0,0,.2-.26.75.75,0,0,0,.1-.32.73.73,0,0,0,0-.33.82.82,0,0,0-.14-.28A.74.74,0,0,0,106.84,19.15Z"/><path class="cls-1" d="M112.37,25.93l-.49.59.6.48a.86.86,0,0,0,.17.13.71.71,0,0,0,.16.07v.05l-.35.42a.93.93,0,0,0-.14-.14l-.16-.14L109.24,25l-.17-.13-.18-.11.28-.5.09,0a.93.93,0,0,0,.11.16l.18.18.63.52.48-.59-.33-.27a.24.24,0,0,1-.07-.12.16.16,0,0,1,0-.14l.64-.78a1.58,1.58,0,0,0,.14-.23.69.69,0,0,0,.09-.23h.1a.86.86,0,0,0,.13.17,1.7,1.7,0,0,0,.19.19l1.73,1.42.43-.53L112,22.59l-.2-.15-.16-.09.28-.5H112a.86.86,0,0,0,.13.17,1.53,1.53,0,0,0,.18.18l1.92,1.57.15.11.15.07v0l-1.08,1.31-2.07-1.7-.44.54,1.9,1.56.15.11a.56.56,0,0,0,.16.07v0l-.35.43-.12-.13-.14-.12Zm-1.72-.43.77.63.48-.58-.77-.63Z"/><path class="cls-1" d="M114.36,29.39a1,1,0,0,0,.22-.24.53.53,0,0,0,.11-.23l.08,0,.41.66-.24.15-.39.33L116.14,32a1,1,0,0,0,.27.24v0l-.43.35-.09-.15-.11-.14L113.9,30a.19.19,0,0,1-.05-.13.18.18,0,0,1,.06-.13Zm2.84.82a1.43,1.43,0,0,1-.37-.23,3.26,3.26,0,0,1-.57-.56l-.21-.26-.55.46-.44-.44.6-.49-.42-.51a3,3,0,0,0-.21-.25,2.49,2.49,0,0,0-.23-.23l.37-.44.08,0a.89.89,0,0,0,.11.22,1.44,1.44,0,0,0,.18.25l1,1.27a4.35,4.35,0,0,0,.55.57,1.39,1.39,0,0,0,.41.25Zm-.51,1.49-.46-.41.37-.3-.46-.56-.15-.16-.14-.13.35-.42h.06a1.2,1.2,0,0,0,.12.21l.15.21.44.53,1.92-1.57a1.79,1.79,0,0,0,.23-.25.73.73,0,0,0,.11-.25l.08,0,.41.66-.25.16Zm1.37-4.58a2.2,2.2,0,0,1,.27.47,1.73,1.73,0,0,1,.11.49,1,1,0,0,1-.07.45.83.83,0,0,1-.26.36.77.77,0,0,1-.4.18,1,1,0,0,1-.45,0,1.43,1.43,0,0,1-.46-.2,2,2,0,0,1-.4-.36,2.08,2.08,0,0,1-.28-.47,1.53,1.53,0,0,1-.12-.49,1,1,0,0,1,.07-.46.73.73,0,0,1,.25-.35.91.91,0,0,1,.41-.19,1,1,0,0,1,.45,0,1.51,1.51,0,0,1,.47.21A2.3,2.3,0,0,1,118.06,27.12Zm-.4.33a1.19,1.19,0,0,0-.23-.22,1,1,0,0,0-.26-.12.49.49,0,0,0-.24,0,.37.37,0,0,0-.22.1.43.43,0,0,0-.13.19.88.88,0,0,0,0,.24.7.7,0,0,0,.08.27.92.92,0,0,0,.16.27,1.51,1.51,0,0,0,.23.21.82.82,0,0,0,.25.12.71.71,0,0,0,.25,0,.48.48,0,0,0,.21-.09.53.53,0,0,0,.13-.2.47.47,0,0,0,0-.24.9.9,0,0,0-.07-.27A1,1,0,0,0,117.66,27.45Z"/><path class="cls-3" d="M92.56,33.85h4.83V45.38c0,1.45.29,2.7,2.28,2.7,1.74,0,2.26-1.11,2.26-2.7V33.85h4.84V43.2c0,4.74-2.2,6.81-7.1,6.81-4.57,0-7.11-1.75-7.11-6.83Z"/><path class="cls-3" d="M88.68,35.77V33.85H74.94V46.66a2.74,2.74,0,0,0,2.91,2.7H88.68V47.43H79.79V42.07h8.68V40.15H79.79V35.77Z"/><path class="cls-3" d="M95.64,62.23c0,5.16,2.66,6.94,7.35,6.94,5.05,0,7-2.29,7.27-5.85h-5v1.13c0,1.65-.52,2.79-2.32,2.79-2.06,0-2.35-1.29-2.35-2.79V57.26c0-1.5.29-2.79,2.35-2.79,1.8,0,2.32,1.14,2.32,2.79v1.15h5a8.06,8.06,0,0,0-.83-3c-1.15-2-3.37-2.84-6.44-2.84-4.72,0-7.34,1.79-7.35,7h0Z"/><path class="cls-3" d="M91.3,54.11a1.44,1.44,0,0,0-.24-.48,1.69,1.69,0,0,0-1.52-.7h-3a1.67,1.67,0,0,0-1.51.7,1.83,1.83,0,0,0-.25.48l-2.62,8.58L79.7,54.11a1.89,1.89,0,0,0-.25-.49,1.68,1.68,0,0,0-1.51-.69H75a1.69,1.69,0,0,0-1.76,1.18L68.4,69.91,72,73.71a1.65,1.65,0,0,0,.18-.41l4.26-14,2.51,8.58a1.57,1.57,0,0,0,.25.48h0a1.7,1.7,0,0,0,1.51.7h3a1.69,1.69,0,0,0,1.76-1.18L88,59.29l2.46,8.37a1.57,1.57,0,0,0,1.58,1.24h3.58Z"/><path class="cls-1" d="M61,39.78l-1.33-.46-.23.67,0,.09a.65.65,0,0,1,0,.13,1,1,0,0,1-.06.24l-.4-.14s0-.12.1-.22A1.12,1.12,0,0,0,59,40a.63.63,0,0,0,0-.09l.22-.66-1.55-.54s-.06.15-.1.28-.09.3-.15.52a2.4,2.4,0,0,0-.11.48L57,39.82,57.6,38l3.85,1.32-.62,1.79L60.45,41c0-.08.09-.16.12-.23a1.13,1.13,0,0,0,.09-.2l.14-.35Z"/><path class="cls-1" d="M57.2,41.77l3.43-.29-.13.63h-.27l-.38,0-1.27.06-1.23.11v.06l1.83,1,.95.52-.08.41-1.25.12-1.92.17v0l.31.16.32.17,2.18,1.14-.1.46-.34-.21-.35-.2-3.05-1.67.08-.4L57.3,44l1.91-.14v0L56.3,42.22l.08-.4.34,0Z"/><path class="cls-1" d="M57.79,49.71l1.66.08,0,.6-4.08-.2,0-.6,2,.1c0-.27,0-.49,0-.65s0-.28,0-.34v-.34c0-.16,0-.39,0-.66l-2-.1,0-.6,4.07.2,0,.6-1.67-.08c0,.27,0,.49-.05.66s0,.28,0,.33a2.93,2.93,0,0,0,0,.34C57.8,49.22,57.79,49.44,57.79,49.71Z"/><path class="cls-1" d="M59.66,52.81,55.6,54.72l-.05-.67,1.36-.6-.09-1.24-1.43-.41,0-.47,4.3,1.37Zm-2.42.47,1.33-.58-1.4-.4Z"/><path class="cls-1" d="M57,58.06l2.93-1.81.17.62-.24.14-.33.19-1.1.63-1,.66v0l2.11.1c.53,0,.89,0,1.09,0l.11.42-1.06.67-1.63,1v0h.72l2.45,0,.13.46-.4,0a2.82,2.82,0,0,0-.41,0L57,61.15l-.1-.39L58.1,60c.46-.29,1-.61,1.64-1v0l-3.35-.12-.11-.4.3-.17Z"/><path class="cls-1" d="M58.48,65.09a1.85,1.85,0,0,1-.07-1.54,2.43,2.43,0,0,1,2.83-1.26,1.94,1.94,0,0,1,1.11,1.05,2.06,2.06,0,0,1,.14,1.47A1.93,1.93,0,0,1,61.33,66a2.2,2.2,0,0,1-1.69.15A2,2,0,0,1,58.48,65.09Zm2.54.35a2.84,2.84,0,0,0,.56-.33,1.49,1.49,0,0,0,.42-.45,1.16,1.16,0,0,0,.08-1.15,1.14,1.14,0,0,0-.87-.69,2.22,2.22,0,0,0-1.4.23,2,2,0,0,0-1,.9,1.18,1.18,0,0,0,0,1,1.24,1.24,0,0,0,1.07.7A2.41,2.41,0,0,0,61,65.44Z"/><path class="cls-1" d="M65.28,68.65l.14.21c-.69.54-1.29,1-1.82,1.46s-1,.81-1.37,1.14l-.36-.55,1.47-1.13.77-.61c-1.28.14-2.28.28-3,.41L61,69.45l.42-.61.43-.69L62.6,67l-.55.29-.69.36-.7.37-.49.29-.28-.42,2.21-1c.61-.3,1.11-.55,1.5-.76l.12.18-1,1.61c-.29.46-.52.85-.71,1.18.33,0,.77-.07,1.31-.14Z"/><path class="cls-1" d="M67.17,70.83l-2.12,4-.44-.51L65.35,73l-.81-.94c-.77.28-1.24.46-1.41.51l-.3-.35,4.27-1.46Zm-1.66,1.83.72-1.26-1.36.51Z"/><path class="cls-1" d="M70.94,74.71l-2.74,3L68,77.57l.23-3.84-.06,0-2,2.23-.29-.27,2.74-3,.23.21-.17,3.69,0,0,1.92-2.11Z"/><path class="cls-1" d="M69.78,77.94l0,0a.94.94,0,0,0,.39,1,.61.61,0,0,0,.52.07.87.87,0,0,0,.45-.35.67.67,0,0,0,.08-.74l-.21-.4-.18-.38a1,1,0,0,1,.19-1,1.09,1.09,0,0,1,.8-.49,1.29,1.29,0,0,1,.85.26,1.07,1.07,0,0,1,.45.68l-.4.31,0,0a.69.69,0,0,0-.28-.76A.53.53,0,0,0,72,76a.7.7,0,0,0-.41.29.63.63,0,0,0-.08.69q.18.44.39.84a1,1,0,0,1-.13,1,1.33,1.33,0,0,1-.9.58,1.46,1.46,0,0,1-1.32-.62,1,1,0,0,1-.18-.45Z"/><path class="cls-1" d="M76.05,78.09l-1,2a1.82,1.82,0,0,0-.26,1.1,1,1,0,0,0,.54.7c.65.32,1.18,0,1.62-.92l1-2,.38.19-1.06,2.13a2.4,2.4,0,0,1-.43.63,1.47,1.47,0,0,1-.53.36,1.2,1.2,0,0,1-.59.09,1.77,1.77,0,0,1-.64-.18,1.57,1.57,0,0,1-.86-.9A1.88,1.88,0,0,1,74.44,80l1.07-2.14Z"/><path class="cls-1" d="M82.31,80.64,81,84.52l-.24-.08-1.32-3.61-.06,0-1,2.84L78,83.52l1.31-3.87.29.09L81,83.2l.06,0,.92-2.7Z"/><path class="cls-1" d="M82.42,84.86l.94-4,.58.14L83,85Z"/><path class="cls-1" d="M87,82.57l.49-.95.48.08c-.06.09-.18.29-.35.59L86.9,83.5l-.72,1.29c-.18.33-.3.58-.37.72l-.21,0c-.08-.27-.16-.62-.26-1s-.22-.9-.34-1.46-.22-.94-.29-1.23-.11-.48-.14-.56l.66.1c0,.07,0,.15,0,.25s0,.22.07.35l.2,1.09.33,1.49h.06l.28-.5Z"/><path class="cls-1" d="M89.2,82.07l-.06,1.4.7,0h.24a1.85,1.85,0,0,1,.24,0l0,.42-.24,0h-.24l-.7,0-.07,1.64h.3a4.79,4.79,0,0,0,.54,0,2.05,2.05,0,0,0,.49,0l0,.41-1.92-.09.18-4.06,1.89.08,0,.41-.25-.06-.23,0-.37,0Z"/><path class="cls-1" d="M94.32,85.74l-.73,0a2.17,2.17,0,0,0-.15-.22l-.21-.29-.69-.87-.46-.55.1,2-.59,0-.22-4.08,1.12-.06c.79,0,1.2.24,1.24.84a1,1,0,0,1-.31.81,1.49,1.49,0,0,1-.67.38ZM92,82l.08,1.54a2.22,2.22,0,0,0,.51-.06,1,1,0,0,0,.45-.3.75.75,0,0,0,.15-.53.67.67,0,0,0-.64-.67h-.24Z"/><path class="cls-1" d="M95.12,84.82h0a1,1,0,0,0,.94.41.65.65,0,0,0,.43-.32.86.86,0,0,0,.07-.56.66.66,0,0,0-.46-.59l-.43-.14-.4-.14a1,1,0,0,1-.55-.84,1.09,1.09,0,0,1,.23-.91,1.19,1.19,0,0,1,.79-.41,1,1,0,0,1,.8.17l-.08.5h-.05a.68.68,0,0,0-.73-.36.58.58,0,0,0-.38.23.68.68,0,0,0-.08.5.63.63,0,0,0,.41.55c.3.12.59.23.87.32a1,1,0,0,1,.6.8,1.35,1.35,0,0,1-.23,1,1.41,1.41,0,0,1-.91.5,1.26,1.26,0,0,1-.47,0,.9.9,0,0,1-.44-.19Z"/><path class="cls-1" d="M98.42,85.06l-.9-4,.59-.13.89,4Z"/><path class="cls-1" d="M100.52,80.64l1.1,3.59-.57.17L100,80.82q-.48.15-1,.39l-.12-.4,2.65-.81.13.4A8.31,8.31,0,0,0,100.52,80.64Z"/><path class="cls-1" d="M104.31,81.25l.72,1.68-.53.23-.67-1.58-2.14-1.67.67-.28c.18.17.46.42.84.73l.46.37.25.19c0-.07.1-.75.2-2l.47-.19a5.59,5.59,0,0,0-.12.69l-.13,1.21A3.89,3.89,0,0,0,104.31,81.25Z"/><path class="cls-1" d="M109.35,75.81l.21-.14c.55.69,1,1.29,1.47,1.81s.82,1,1.15,1.36l-.55.36-1.14-1.45c-.29-.37-.49-.63-.62-.77.15,1.27.3,2.28.44,3l-.13.08-.61-.4-.7-.44-1.19-.73c.09.15.19.34.3.54l.36.69c.15.27.27.5.39.7l.29.49-.42.28c-.4-.85-.76-1.59-1.06-2.2s-.56-1.11-.77-1.49l.18-.12c.61.38,1.15.72,1.62,1s.86.52,1.18.7c0-.33-.08-.76-.14-1.31S109.45,76.59,109.35,75.81Z"/><path class="cls-1" d="M111.21,74.73l.91,1.07.54-.45.07-.07.1-.09A1.21,1.21,0,0,1,113,75l.27.32-.2.14-.11.08-.08.06-.53.46,1.07,1.25.22-.19c.11-.09.24-.22.4-.37a3.89,3.89,0,0,0,.34-.36l.26.31L113.19,78l-2.64-3.1L112,73.65l.26.31-.22.13-.18.12-.3.24Z"/><path class="cls-1" d="M115.65,75.8l-3-2.78.83-.88.36-.38.21-.2a1.23,1.23,0,0,1,.75-.3,1.87,1.87,0,0,1,1.48.59,2.32,2.32,0,0,1,.82,1.7,1.54,1.54,0,0,1-.24.84,4.93,4.93,0,0,1-.54.66Zm-2.29-3,2.41,2.26.23-.22a1.2,1.2,0,0,0,.16-.16,1.45,1.45,0,0,0-.19-2.36,1.72,1.72,0,0,0-1.18-.51,1.6,1.6,0,0,0-1.07.58,1.08,1.08,0,0,0-.14.15Z"/><path class="cls-1" d="M118.69,72.41l-3.22-2.5.37-.47,3.22,2.5Z"/><path class="cls-1" d="M121.17,68.35a2.14,2.14,0,0,1-.06.61,2.29,2.29,0,0,1-.3.61,1.77,1.77,0,0,1-1.23.81,2.21,2.21,0,0,1-1.59-.44,2.55,2.55,0,0,1-.64-.56,1.92,1.92,0,0,1-.34-.72,2,2,0,0,1,0-.77,2.07,2.07,0,0,1,.31-.76,2.8,2.8,0,0,1,.38-.47,2.66,2.66,0,0,1,.51-.4l.4.43-.06.09-.21,0-.23.08a1,1,0,0,0-.29.2,1,1,0,0,0-.21.25.84.84,0,0,0-.13.29,1.57,1.57,0,0,0,0,.3,1.53,1.53,0,0,0,0,.3,2.76,2.76,0,0,0,.08.27,2.11,2.11,0,0,0,.32.48,2.43,2.43,0,0,0,.53.44,2,2,0,0,0,1.3.39,1.16,1.16,0,0,0,.49-.14,1.31,1.31,0,0,0,.4-.35,1.39,1.39,0,0,0,.23-.56,1.89,1.89,0,0,0,0-.71Z"/><path class="cls-1" d="M119,64.18l4.48.41-.3.61L121.66,65l-.55,1.11,1,1.09-.2.42-3-3.36Zm2.33.82-1.44-.18,1,1.06Z"/><path class="cls-1" d="M120.21,61.59l3.5,1.31c.08-.19.15-.38.22-.6s.13-.44.18-.69l.38.14-.68,1.82L120,62.15Z"/><path class="cls-1" d="M125.65,56a1.91,1.91,0,0,1,.16.59,2,2,0,0,1,0,.68,1.75,1.75,0,0,1-.85,1.2,2.23,2.23,0,0,1-1.64.18,2.67,2.67,0,0,1-.8-.29,1.75,1.75,0,0,1-.58-.54,1.68,1.68,0,0,1-.31-.71,1.89,1.89,0,0,1,0-.82,3.13,3.13,0,0,1,.18-.57,2.73,2.73,0,0,1,.33-.56l.53.25,0,.11a.5.5,0,0,0-.19.1l-.19.15a1.37,1.37,0,0,0-.2.29,2.22,2.22,0,0,0-.1.31,1.16,1.16,0,0,0,0,.32,1.46,1.46,0,0,0,.07.3,2.1,2.1,0,0,0,.13.26,1.32,1.32,0,0,0,.18.22,1.77,1.77,0,0,0,.47.34,2.56,2.56,0,0,0,.66.21,2.07,2.07,0,0,0,1.35-.11,1.16,1.16,0,0,0,.4-.32,1.32,1.32,0,0,0,.25-.47,1.35,1.35,0,0,0,0-.6,1.84,1.84,0,0,0-.28-.66Z"/><path class="cls-1" d="M122.42,53.73l1.4.14.07-.7v-.11a.49.49,0,0,0,0-.13v-.24l.42,0a1.12,1.12,0,0,1,0,.24.51.51,0,0,1,0,.13s0,.07,0,.1l-.07.7,1.64.16q0-.09,0-.3t0-.54a2.69,2.69,0,0,0,0-.49l.4,0-.18,1.91-4-.39.19-1.88.4,0c0,.09,0,.17-.07.25a2.07,2.07,0,0,0,0,.22l0,.37Z"/><path class="cls-1" d="M122.25,48.35l4.09,0v.25l-3,2.43v.07l3,0v.39l-4.08,0v-.31l2.83-2.37v-.07l-2.85,0Z"/><path class="cls-1" d="M122.31,45.93l3.71-.48.08.59-3.71.48a9.11,9.11,0,0,0,.21,1.1l-.42.05-.36-2.75.42-.06A7.59,7.59,0,0,0,122.31,45.93Z"/><path class="cls-1" d="M121.86,43.58l1.37-.31-.15-.69,0-.1,0-.13c0-.11-.07-.19-.08-.23l.41-.09a.81.81,0,0,1,0,.24.69.69,0,0,1,0,.13.44.44,0,0,1,0,.1l.16.69,1.6-.37c0-.06,0-.16-.06-.29L125,42a4.26,4.26,0,0,0-.15-.47l.39-.09.42,1.88-4,.9-.42-1.85.4-.09a2.09,2.09,0,0,0,0,.26l0,.23.07.36Z"/><path class="cls-1" d="M124,37.65l.23.7a2,2,0,0,0-.16.2c-.07.08-.14.18-.22.29l-.66.89-.41.59,1.9-.63.19.56L121,41.55l-.35-1.06c-.25-.76-.09-1.23.48-1.42a1,1,0,0,1,.86.08,1.45,1.45,0,0,1,.55.55Zm-2.94,3.24,1.46-.48a1.6,1.6,0,0,0-.19-.47,1,1,0,0,0-.41-.36.74.74,0,0,0-.55,0,.65.65,0,0,0-.47.79c0,.07,0,.15,0,.23S121.06,40.79,121.1,40.89Z"/><path class="cls-1" d="M125.39,126a3.61,3.61,0,0,1-.77,0h-4v-5.32l.1-.8-3-.32-.14.24a2,2,0,0,1,.4.76,4,4,0,0,1,.17,1.2V126h-2.22v-5.2l.1-.79-3-.33-.14.24a1.9,1.9,0,0,1,.39.76,3.69,3.69,0,0,1,.18,1.2V126h-1.77a6,6,0,0,1-.83-.09,3,3,0,0,1-.67-.18l-.25.15.35,1.93a6,6,0,0,1,.7-.09l.75,0h13l.72,0a5,5,0,0,1,.69.08v-1.89l-.1-.1A4.43,4.43,0,0,1,125.39,126Z"/><path class="cls-1" d="M112,115.59a6.29,6.29,0,0,1,.85-.06h9.3v2.26c0,.74,0,1.45-.08,2.15s-.09,1.33-.15,1.89-.12,1.26-.2,1.83l2.52-.4q.12-1,.21-2.1c0-.66.1-1.4.13-2.23s.06-1.71.07-2.64l0-2,0-.57-.12-.13a2.92,2.92,0,0,1-.61.14l-.74.07H112.86a6.92,6.92,0,0,1-.87-.07,3.75,3.75,0,0,1-.72-.18l-.25.15.35,2Z"/><path class="cls-1" d="M163.31,126a3.61,3.61,0,0,1-.77,0h-2.19v-2.61h.52l.63,0c.23,0,.43,0,.59.07v-1.9l-.1-.07a3.08,3.08,0,0,1-.58.14c-.21,0-.42,0-.62,0h-8.48v-2.41h9.61v-5.83l-.1-.1a2.18,2.18,0,0,1-.56.15,3.39,3.39,0,0,1-.64,0h-9.33a5.24,5.24,0,0,1-.86-.07,3.48,3.48,0,0,1-.72-.17l-.25.14.35,2c.12,0,.33-.06.62-.1a6.15,6.15,0,0,1,.84-.06h8.13v2.34h-8.1a5.46,5.46,0,0,1-.9-.07,4.08,4.08,0,0,1-.73-.18l-.25.21a4.88,4.88,0,0,1,.27.82,5.62,5.62,0,0,1,.1.91v3.49a.61.61,0,0,0,.22.45.71.71,0,0,0,.45.16h1.43V126H149.5a6,6,0,0,1-.84-.09,3,3,0,0,1-.67-.18l-.25.15.35,1.93a6,6,0,0,1,.7-.09l.75,0h13l.72,0a5,5,0,0,1,.69.08v-1.89l-.1-.1A4.43,4.43,0,0,1,163.31,126Zm-5.48,0h-3.42v-2.61h3.42Z"/><path class="cls-1" d="M48.8,112.39a2.17,2.17,0,0,1,.42.85,3.68,3.68,0,0,1,.17,1.15v1.49H47.66c-.27,0-.57,0-.91,0a4,4,0,0,1-.8-.16l-.14.17.33,1.75-.09-.22A5.55,5.55,0,0,0,45,115.61a4.87,4.87,0,0,0-1.62-1.18,4.82,4.82,0,0,0-4,0,5,5,0,0,0-1.61,1.18,5.74,5.74,0,0,0-1.09,1.76,5.84,5.84,0,0,0,0,4.25,5.83,5.83,0,0,0,1.09,1.73,5.33,5.33,0,0,0,1.61,1.17,4.82,4.82,0,0,0,4,0A5.14,5.14,0,0,0,45,123.35a5.57,5.57,0,0,0,.95-1.43l.24,1.26a5.28,5.28,0,0,1,.66-.09c.26,0,.5,0,.73,0h1.85v7.22l2.52-.42V113.57l.12-1L49,112.14Zm-5,8.53a3.66,3.66,0,0,1-.58,1.15,2.82,2.82,0,0,1-.84.78,1.93,1.93,0,0,1-2,0,2.82,2.82,0,0,1-.84-.78,3.66,3.66,0,0,1-.58-1.15,4.64,4.64,0,0,1-.21-1.42,4.82,4.82,0,0,1,.21-1.44,3.94,3.94,0,0,1,.58-1.18,2.82,2.82,0,0,1,.84-.78,1.87,1.87,0,0,1,2,0,2.82,2.82,0,0,1,.84.78,3.94,3.94,0,0,1,.58,1.18A4.82,4.82,0,0,1,44,119.5,4.64,4.64,0,0,1,43.78,120.92Zm5.61.46H47.66a7.65,7.65,0,0,1-.91,0,3.86,3.86,0,0,1-.56-.09,5.9,5.9,0,0,0,.26-1.76,5.45,5.45,0,0,0-.29-1.81,5.37,5.37,0,0,1,.65-.09l.73,0h1.85Z"/><path class="cls-1" d="M179.05,114.39v8.54h-2.38c-.27,0-.57,0-.9-.05a4,4,0,0,1-.81-.16l-.14.17.34,1.83a5.2,5.2,0,0,1,.67-.09l.72,0h2.5v1.63l2.52-.43V113.57l.12-1-3.08-.43-.15.25a2.17,2.17,0,0,1,.42.85A3.68,3.68,0,0,1,179.05,114.39Z"/><path class="cls-1" d="M11.83,112.39a2.48,2.48,0,0,1,.42.85,4,4,0,0,1,.17,1.15v15.88l2.51-.42V113.57l.13-1L12,112.14Z"/><path class="cls-1" d="M8.7,115.61a4.87,4.87,0,0,0-1.62-1.18,4.61,4.61,0,0,0-2-.43,4.64,4.64,0,0,0-2,.43,5,5,0,0,0-1.61,1.18A5.74,5.74,0,0,0,.4,117.37a5.84,5.84,0,0,0,0,4.25,5.83,5.83,0,0,0,1.09,1.73,5.33,5.33,0,0,0,1.61,1.17,4.64,4.64,0,0,0,2,.43,4.61,4.61,0,0,0,2-.43,5.14,5.14,0,0,0,1.62-1.17,5.64,5.64,0,0,0,1.09-1.73,5.8,5.8,0,0,0-1.09-6Zm-1.18,5.31a3.66,3.66,0,0,1-.58,1.15,2.82,2.82,0,0,1-.84.78,1.93,1.93,0,0,1-2,0,2.82,2.82,0,0,1-.84-.78,3.66,3.66,0,0,1-.58-1.15,4.64,4.64,0,0,1-.21-1.42,4.82,4.82,0,0,1,.21-1.44,3.94,3.94,0,0,1,.58-1.18,2.82,2.82,0,0,1,.84-.78,1.87,1.87,0,0,1,2,0,2.82,2.82,0,0,1,.84.78,3.94,3.94,0,0,1,.58,1.18,4.82,4.82,0,0,1,.21,1.44A4.64,4.64,0,0,1,7.52,120.92Z"/><path class="cls-1" d="M181.87,127.76a3.68,3.68,0,0,1-1.2.2h-8.43v-1.75l.12-1-3-.32-.14.24a2.18,2.18,0,0,1,.39.81,4.32,4.32,0,0,1,.14,1.11v2a.61.61,0,0,0,.22.44.72.72,0,0,0,.45.17h10.35l.63,0c.23,0,.43,0,.59.07v-1.9Z"/><path class="cls-1" d="M170.69,124.73l2.51-.2v-2.47h.92a12,12,0,0,0,2.75-.26,5.78,5.78,0,0,0,1.41-.49l-.2-1.69a4.92,4.92,0,0,1-1.57.53,13.84,13.84,0,0,1-2.71.22h-5.65a7.55,7.55,0,0,1-1.06-.07,3.81,3.81,0,0,1-.83-.19l-.25.14.35,1.94c.43-.06.81-.09,1.14-.11l1.1,0h2.09Z"/><path class="cls-1" d="M168.51,118.58a5.45,5.45,0,0,0,1.57.76,6.2,6.2,0,0,0,1.88.28,6,6,0,0,0,1.85-.28,5.21,5.21,0,0,0,1.55-.76,3.88,3.88,0,0,0,1.06-1.16,2.89,2.89,0,0,0,.39-1.47,3,3,0,0,0-.39-1.48,3.58,3.58,0,0,0-1.06-1.17,5.25,5.25,0,0,0-1.55-.78,6,6,0,0,0-1.85-.28,6.2,6.2,0,0,0-1.88.28,5.49,5.49,0,0,0-1.57.78,3.61,3.61,0,0,0-1.07,1.17,3,3,0,0,0-.39,1.48,2.89,2.89,0,0,0,.39,1.47A3.91,3.91,0,0,0,168.51,118.58Zm1.2-3.42a1.88,1.88,0,0,1,.52-.61,2.88,2.88,0,0,1,.78-.41,3,3,0,0,1,1-.15,2.82,2.82,0,0,1,.92.15,3.07,3.07,0,0,1,.76.41,2,2,0,0,1,.52.61,1.74,1.74,0,0,1,.19.79,1.61,1.61,0,0,1-.19.75,2,2,0,0,1-.52.61,2.33,2.33,0,0,1-.76.41,2.81,2.81,0,0,1-.92.14,3,3,0,0,1-1-.14,2.23,2.23,0,0,1-.78-.41,1.88,1.88,0,0,1-.52-.61,1.49,1.49,0,0,1-.19-.75A1.62,1.62,0,0,1,169.71,115.16Z"/><path class="cls-1" d="M132.19,121a4.69,4.69,0,0,0,1.53,1,4.8,4.8,0,0,0,1.85.36,5.06,5.06,0,0,0,1.9-.36,4.68,4.68,0,0,0,2.59-2.48,4.51,4.51,0,0,0,.38-1.83,4.59,4.59,0,0,0-.38-1.84,5.05,5.05,0,0,0-1-1.49,4.67,4.67,0,0,0-1.55-1,4.87,4.87,0,0,0-1.9-.37,4.85,4.85,0,0,0-3.38,1.38,4.71,4.71,0,0,0-1,1.49,4.44,4.44,0,0,0-.39,1.84,4.36,4.36,0,0,0,.39,1.83A4.49,4.49,0,0,0,132.19,121Zm1.22-4.43a3.39,3.39,0,0,1,.51-.94,2.46,2.46,0,0,1,.74-.63,1.78,1.78,0,0,1,.9-.24,1.94,1.94,0,0,1,.95.24,2.57,2.57,0,0,1,.77.63,3.15,3.15,0,0,1,.51.94,3.6,3.6,0,0,1,.18,1.15,3.36,3.36,0,0,1-.18,1.11,3,3,0,0,1-.51.91,2.33,2.33,0,0,1-.77.6,2.17,2.17,0,0,1-.95.22,2,2,0,0,1-.9-.22,2.23,2.23,0,0,1-.74-.6,3.21,3.21,0,0,1-.51-.91,3.36,3.36,0,0,1-.18-1.11A3.6,3.6,0,0,1,133.41,116.54Z"/><path class="cls-1" d="M141.57,112.39a2.32,2.32,0,0,1,.41.85,3.69,3.69,0,0,1,.18,1.15v9.08a4.78,4.78,0,0,1-1.61.49,17.2,17.2,0,0,1-2.91.21h-6a7.45,7.45,0,0,1-1.06-.07,3.92,3.92,0,0,1-.84-.19l-.24.14.34,1.94c.44,0,.82-.09,1.15-.1s.69,0,1.1,0H138a14.79,14.79,0,0,0,2.7-.21,6.22,6.22,0,0,0,1.44-.38v5l2.51-.42V113.57l.12-1-3.08-.43Z"/><path class="cls-1" d="M34.24,119.13a5.78,5.78,0,0,1-.71.05h-.79v-5.61l.13-1-3.09-.43-.14.25a2.48,2.48,0,0,1,.42.85,4,4,0,0,1,.17,1.15v9.17a4.38,4.38,0,0,1-1.58.5,15.62,15.62,0,0,1-2.88.22H25v-1.66l.51-.16a4.69,4.69,0,0,0,1.47-.87,3.84,3.84,0,0,0,1-1.27,3.52,3.52,0,0,0,.35-1.55,4.16,4.16,0,0,0-.35-1.69,3.85,3.85,0,0,0-.76-1.14h.94l.37,0,.33,0,.22,0v-1.83l-.13-.11a3,3,0,0,1-.55.15c-.17,0-.39,0-.65.06H25v-1l.05-.72-2.84-.41-.14.23a3.14,3.14,0,0,1,.3.61,2.16,2.16,0,0,1,.11.65v.68H19.87a6.74,6.74,0,0,1-.85-.1,2.93,2.93,0,0,1-.74-.19l-.24.14.35,1.94a5.35,5.35,0,0,1,.68-.11l.78,0h.44a4.09,4.09,0,0,0-.77,1.14,3.87,3.87,0,0,0-.37,1.69,3.28,3.28,0,0,0,.37,1.55,4.29,4.29,0,0,0,1,1.27,4.61,4.61,0,0,0,1.43.87,3.56,3.56,0,0,0,.53.16v1.66H19.93a9.59,9.59,0,0,1-1.06-.07A3.73,3.73,0,0,1,18,124l-.25.14.35,1.94c.44,0,.82-.09,1.14-.1s.7,0,1.1,0h5.77a14.11,14.11,0,0,0,2.66-.21,5.82,5.82,0,0,0,1.42-.38v4.89l2.51-.42v-9h.92l.72,0A5.28,5.28,0,0,1,35,121v-1.83l-.16-.17A3,3,0,0,1,34.24,119.13Zm-10.55,2a1.79,1.79,0,0,1-.79-.18,2.34,2.34,0,0,1-.66-.51,2.58,2.58,0,0,1-.45-.75,2.46,2.46,0,0,1-.17-.91,2.84,2.84,0,0,1,.17-1,2.49,2.49,0,0,1,.45-.8,2.24,2.24,0,0,1,.66-.53,1.67,1.67,0,0,1,.79-.19,1.78,1.78,0,0,1,.83.19,2.19,2.19,0,0,1,.68.53,2.49,2.49,0,0,1,.45.8,2.84,2.84,0,0,1,.16,1,2.45,2.45,0,0,1-.16.91,2.58,2.58,0,0,1-.45.75,2.29,2.29,0,0,1-.68.51A1.9,1.9,0,0,1,23.69,121.12Z"/><path class="cls-1" d="M70.87,119.13a5.62,5.62,0,0,1-.7.05h-.81v-5.61l.12-1-3.08-.43-.15.25a2.17,2.17,0,0,1,.42.85,3.69,3.69,0,0,1,.18,1.15v15.88l2.51-.42v-9h.93l.72,0a5.28,5.28,0,0,1,.66.09v-1.83l-.16-.17A2.85,2.85,0,0,1,70.87,119.13Z"/><path class="cls-1" d="M107.55,117.19a5.62,5.62,0,0,1-.7,0h-.8v-3.67l.13-1-3.09-.43-.14.25a2.32,2.32,0,0,1,.41.85,3.69,3.69,0,0,1,.18,1.15v9l2.51-.25v-4.2H107l.72,0a5.28,5.28,0,0,1,.66.09V117.2l-.16-.16A3.55,3.55,0,0,1,107.55,117.19Z"/><path class="cls-1" d="M105.39,124c-.19,0-.41,0-.64,0H95.08a8.14,8.14,0,0,1-.85-.08,2.9,2.9,0,0,1-.66-.16l-.24.14.35,2c.19,0,.41-.08.66-.11a4.56,4.56,0,0,1,.72-.06h8.48v4.55l2.52-.43v-5.77l-.14-.12A3.71,3.71,0,0,1,105.39,124Z"/><path class="cls-1" d="M94.94,122.67a5.25,5.25,0,0,0,1.83.32,5.2,5.2,0,0,0,1.82-.32,4.93,4.93,0,0,0,1.5-.89,4.23,4.23,0,0,0,1-1.34,3.84,3.84,0,0,0,.36-1.66,4,4,0,0,0-.36-1.67,4.19,4.19,0,0,0-.87-1.22H101a6,6,0,0,1,.66,0l.55.06v-1.83l-.1-.11a3.35,3.35,0,0,1-.56.15,5,5,0,0,1-.65.06h-3v-1l.07-.73-2.43-.35-.14.23a2.63,2.63,0,0,1,.29.61,1.89,1.89,0,0,1,.11.65v.63H92.84c-.27,0-.56-.05-.86-.09a3.27,3.27,0,0,1-.73-.2l-.24.15.34,1.93a5.65,5.65,0,0,1,.68-.11l.79,0h.51a4.15,4.15,0,0,0-.86,1.22,4,4,0,0,0-.36,1.67,3.84,3.84,0,0,0,.36,1.66,4.32,4.32,0,0,0,1,1.34A4.6,4.6,0,0,0,94.94,122.67Zm-.15-5a2.63,2.63,0,0,1,.46-.84,2.15,2.15,0,0,1,.68-.56,1.77,1.77,0,0,1,.85-.2,1.74,1.74,0,0,1,.84.2,2.3,2.3,0,0,1,.69.56,2.65,2.65,0,0,1,.47.84,3.12,3.12,0,0,1,.17,1,3,3,0,0,1-.17,1,2.6,2.6,0,0,1-.47.83,2.13,2.13,0,0,1-.69.55,1.85,1.85,0,0,1-.84.19,1.89,1.89,0,0,1-.85-.19,2,2,0,0,1-.68-.55,2.58,2.58,0,0,1-.46-.83,3,3,0,0,1-.17-1A3.12,3.12,0,0,1,94.79,117.7Z"/><path class="cls-1" d="M62,120.91a8.6,8.6,0,0,1-.76-3.82v-1.21H64a6,6,0,0,1,.65,0,4.92,4.92,0,0,1,.55.06v-1.86l-.1-.1a2.34,2.34,0,0,1-.55.14,5.17,5.17,0,0,1-.65.06H56.35a6.61,6.61,0,0,1-.86-.09,2.84,2.84,0,0,1-.73-.19l-.25.14.35,2a4.18,4.18,0,0,1,.68-.11l.78-.05h2.24v1.21a8.75,8.75,0,0,1-.76,3.82,6.64,6.64,0,0,1-1.47,1.65A11.59,11.59,0,0,1,54.07,124l1.32,1.51a10.34,10.34,0,0,0,2.87-2.09,9.15,9.15,0,0,0,1.61-2.36,9.2,9.2,0,0,0,1.62,2.36,10.43,10.43,0,0,0,2.86,2.09L65.68,124a12,12,0,0,1-2.27-1.44A6.4,6.4,0,0,1,62,120.91Z"/><path class="cls-1" d="M86.09,112.39a2.48,2.48,0,0,1,.42.85,4,4,0,0,1,.17,1.15v4.47H85.21v-5.2l.13-1-3-.42-.15.25a2.17,2.17,0,0,1,.42.85,3.74,3.74,0,0,1,.18,1.15v8a3.3,3.3,0,0,1-1.08.4,5.76,5.76,0,0,1-1.28.14h-4v-7.09h3.27l.65,0,.58.07v-1.9l-.1-.1a3.49,3.49,0,0,1-1.21.2h-4.2a5.26,5.26,0,0,1-.89-.07,3.54,3.54,0,0,1-.74-.17l-.24.2a4.86,4.86,0,0,1,.26.83,4.51,4.51,0,0,1,.1.91v8.17a.62.62,0,0,0,.23.45.67.67,0,0,0,.45.16h6a6.17,6.17,0,0,0,1.4-.13,3.88,3.88,0,0,0,.86-.29v5.78l2.4-.4v-9.19h1.47v9.8l2.41-.41V113.43l.12-.87-3-.42Z"/></g></g></svg>