<svg xmlns="http://www.w3.org/2000/svg" xmlns:xlink="http://www.w3.org/1999/xlink" viewBox="0 0 154.72 152.46"><defs><style>.cls-1{fill:#00583d;}.cls-2{fill:url(#radial-gradient);}.cls-3{fill:#fff;}</style><radialGradient id="radial-gradient" cx="-153.89" cy="-32.02" r="35.33" gradientTransform="translate(274.52 118.51) scale(1.28)" gradientUnits="userSpaceOnUse"><stop offset="0.12" stop-color="#00827e"/><stop offset="0.64" stop-color="#00aca7"/></radialGradient></defs><g id="레이어_2" data-name="레이어 2"><g id="레이어_1-2" data-name="레이어 1"><path class="cls-1" d="M151,53.49h0a78.35,78.35,0,0,0-9.83-19.85c-.75-1.06-1.52-2.07-2.31-3-5.93-7.72-16.26-12-24.1-4.67,4.57-9.74-2.72-18.22-11.9-21.48-1.14-.45-2.34-.88-3.58-1.26A78.75,78.75,0,0,0,77.35,0h0A78.24,78.24,0,0,0,55.43,3.22C54.18,3.6,53,4,51.85,4.48,42.67,7.74,35.38,16.23,40,26c-7.85-7.36-18.17-3-24.11,4.69-.78.94-1.55,1.94-2.31,3A78.35,78.35,0,0,0,3.72,53.51h0A79.09,79.09,0,0,0,0,75.36c0,1.3,0,2.57.1,3.79C.37,88.89,6.18,98.44,16.86,97.1c-9.42,5.19-8.51,16.33-3,24.37.66,1,1.37,2.08,2.15,3.12a78.52,78.52,0,0,0,15.85,15.48h0a78.63,78.63,0,0,0,19.62,10.28c1.23.41,2.45.77,3.64,1.08,9.34,2.76,20.22.17,22.24-10.39,2,10.56,12.91,13.14,22.26,10.38,1.18-.31,2.4-.66,3.63-1.08a78.69,78.69,0,0,0,19.62-10.29h0a78.45,78.45,0,0,0,15.84-15.48c.78-1,1.49-2.09,2.15-3.13,5.51-8,6.42-19.18-3-24.36,10.68,1.33,16.49-8.22,16.75-18,.08-1.22.11-2.49.1-3.79A78.39,78.39,0,0,0,151,53.49ZM41.7,17.21c2.15-5,7.54-7.57,16-7.57,1.49,0,3.1.08,4.77.24,2.38.4,4.66.73,6.75,1a73.25,73.25,0,0,0,8.12.61h0a72.09,72.09,0,0,0,8.12-.62c2.09-.25,4.36-.59,6.75-1,1.67-.16,3.27-.25,4.77-.25,8.47,0,13.86,2.55,16,7.57,1.34,3.35.64,6.47-1.32,10.57a60.21,60.21,0,0,0-68.66,0C41.06,23.69,40.36,20.56,41.7,17.21ZM9.08,92.74C5,89.14,4.21,83.23,6.82,75.17c.46-1.42,1-2.92,1.7-4.46,1.12-2.15,2.14-4.21,3-6.12a70,70,0,0,0,3.08-7.53h0a72.82,72.82,0,0,0,1.92-7.92c.4-2.06.79-4.32,1.15-6.72.36-1.64.78-3.19,1.24-4.61,2.62-8,6.71-12.39,12.15-12.89,3.6-.23,6.35,1.39,9.64,4.52a60.32,60.32,0,0,0-21.17,65.3C15.05,95.35,11.86,95.05,9.08,92.74ZM70.82,147.1c-4.69,2.8-10.55,1.69-17.4-3.28-1.21-.88-2.46-1.89-3.72-3-1.7-1.73-3.34-3.33-4.88-4.76a70.49,70.49,0,0,0-6.21-5.27h0a72.73,72.73,0,0,0-6.93-4.28c-1.84-1-3.88-2.09-6-3.17a47,47,0,0,1-4-2.6c-6.86-5-9.72-10.21-8.51-15.53.89-3.51,3.3-5.64,7.31-7.8A60.46,60.46,0,0,0,76,137.69C75.16,142.21,73.89,145.17,70.82,147.1Zm6.54-11a58.76,58.76,0,1,1,58.76-58.76A58.83,58.83,0,0,1,77.36,136.13Zm64.24-30.95c1.21,5.32-1.64,10.55-8.5,15.53a47,47,0,0,1-4,2.61c-2.16,1.08-4.19,2.15-6,3.17a71.3,71.3,0,0,0-6.93,4.28h0a69.51,69.51,0,0,0-6.21,5.26c-1.54,1.44-3.18,3-4.88,4.77-1.26,1.11-2.51,2.12-3.72,3-6.85,5-12.71,6.08-17.4,3.29-3.07-1.94-4.34-4.9-5.16-9.41a60.46,60.46,0,0,0,55.52-40.3C138.31,99.55,140.72,101.67,141.6,105.18Zm4.05-12.47c-2.78,2.31-6,2.61-10.49,2A60.33,60.33,0,0,0,114,29.43c3.29-3.14,6.05-4.76,9.65-4.52,5.43.49,9.53,4.82,12.15,12.88.46,1.42.88,3,1.24,4.61.36,2.39.75,4.65,1.15,6.72A71.24,71.24,0,0,0,140.08,57h0a74.23,74.23,0,0,0,3.1,7.53c.88,1.91,1.9,4,3,6.11.67,1.54,1.24,3,1.7,4.46C150.52,83.2,149.76,89.11,145.65,92.71Z"/><path class="cls-2" d="M109.44,108.08c.4-.42.8-.85,1.18-1.29L94.37,91.87l17.38,13.61c.37-.45.73-.91,1.08-1.37L95.44,90.49l18.41,12.21c.33-.48.65-1,1-1.45L96.44,89.06l19.28,10.71c.29-.5.58-1,.86-1.52L97.25,87.51l20.12,9.19q.38-.78.72-1.59L98,85.92l20.79,7.59c.21-.54.41-1.09.6-1.64L98.61,84.29l21.29,5.93c.17-.56.33-1.11.48-1.68L99.07,82.61l21.7,4.24c.13-.57.24-1.14.34-1.71L99.38,80.89l22,2.53c.08-.58.15-1.15.21-1.73l-22-2.53,22.12.79q0-.87.06-1.74l-22.14-.8,22.14-1q0-.87-.06-1.74l-22.14,1,22-2.68c0-.58-.13-1.16-.21-1.74l-22,2.68,21.73-4.39h0c-.11-.57-.22-1.14-.34-1.71h0L99,72.22l21.3-6.09h0c-.15-.56-.31-1.12-.48-1.67h0L98.58,70.53l20.73-7.73h0c-.19-.55-.39-1.09-.6-1.63h0l-20.8,7.75L118,59.56l0,0c-.24-.53-.47-1.06-.73-1.58h0L97.2,67.32l19.3-10.9,0,0c-.27-.51-.56-1-.86-1.51h0L96.32,65.81l18.41-12.39,0,0q-.47-.74-1-1.44h0L95.35,64.36l17.37-13.79,0,0c-.35-.46-.71-.92-1.08-1.37l0,0L94.27,63l16.23-15.1,0,0c-.39-.43-.78-.85-1.19-1.27l0,0L93.1,61.7l15-16.32,0-.05c-.41-.4-.84-.79-1.27-1.18a.1.1,0,0,1,0,0l-15,16.33,13.67-17.45,0-.07c-.45-.36-.9-.72-1.36-1.07l-.06.06L90.42,59.45,102.68,41a.25.25,0,0,0,0-.07l-1.44-1-.06.07L89,58.49,99.73,39.1a.3.3,0,0,0,0-.08c-.49-.3-1-.58-1.5-.85l-.06.08L87.45,57.62l9.21-20.15,0-.11c-.51-.25-1-.49-1.56-.72l-.07.11-9.2,20.14,7.6-20.81,0-.11q-.81-.31-1.62-.6a.61.61,0,0,0-.05.12L84.22,56.3,90.16,35a.51.51,0,0,0,0-.13c-.54-.17-1.09-.33-1.65-.47a.58.58,0,0,0,0,.14l-6,21.36,4.25-21.77s0-.09,0-.14c-.56-.12-1.13-.22-1.69-.32a.5.5,0,0,0,0,.13L80.81,55.53l2.54-22.05v-.14c-.57-.08-1.13-.15-1.7-.2a.57.57,0,0,0,0,.14l-2.53,22,.8-22.13a.76.76,0,0,0,0-.15c-.57,0-1.14,0-1.71,0a.59.59,0,0,0,0,.14l-.8,22.17-1-22.16a.77.77,0,0,0,0-.15c-.57,0-1.14,0-1.71.07a.76.76,0,0,0,0,.15l.94,22.14-2.67-22a.94.94,0,0,0,0-.16c-.57.06-1.14.14-1.7.22v.15l2.68,22L69.46,33.8a.83.83,0,0,0,0-.15c-.57.1-1.13.22-1.69.34a1,1,0,0,0,0,.16l4.39,21.71-6.08-21.3L66,34.4l-1.65.47,0,.17,6.09,21.32L62.73,35.58s0-.1-.07-.14c-.54.19-1.08.39-1.61.6a.83.83,0,0,0,0,.15L68.85,57,59.48,36.87a.64.64,0,0,0-.08-.14c-.52.23-1,.47-1.55.72a.88.88,0,0,0,0,.15l9.34,20.09L56.35,38.4a.6.6,0,0,0-.09-.13c-.5.27-1,.56-1.49.85l.06.13,10.9,19.32L53.35,40.17l-.09-.11c-.48.31-1,.63-1.42,1l.06.12L64.29,59.55,50.5,42.17l-.1-.1c-.45.35-.91.7-1.35,1.06l.08.13L62.92,60.63,47.81,44.39l-.1-.09c-.43.38-.84.78-1.26,1.18l.08.1L61.64,61.82l-16.34-15-.1-.08c-.39.42-.78.84-1.16,1.27l.08.09,16.34,15L43,49.43l-.11-.07-1.07,1.35.1.1L59.36,64.46,40.9,52.22a.24.24,0,0,0-.11-.06c-.33.47-.64,1-.95,1.43a.39.39,0,0,0,.1.08L58.43,65.94,39,55.16l-.11,0c-.29.5-.57,1-.84,1.51l.1.07L57.55,67.45,37.4,58.24l-.13,0c-.24.51-.48,1-.71,1.57l.11.06L56.8,69,36,61.44l-.11,0c-.21.53-.41,1.07-.59,1.62l.1,0,20.83,7.6L34.88,64.74a.23.23,0,0,0-.11,0c-.17.54-.33,1.1-.47,1.65l.11,0,21.34,5.94L34,68.11H33.9c-.12.56-.22,1.13-.32,1.7l.1,0,21.74,4.25-22-2.54h-.1c-.07.57-.14,1.15-.19,1.72l.09,0,22,2.53L33.08,75H33c0,.58,0,1.15,0,1.73H33l22.14.8L33,78.5H33c0,.58,0,1.16.07,1.73h.08l22.14-1L33.24,82l-.08,0c.06.58.14,1.15.22,1.72h.07l22-2.68L33.73,85.43l-.06,0c.11.57.22,1.14.35,1.7h.06l21.71-4.4-21.3,6.09-.06,0c.15.56.31,1.11.48,1.67H35l21.32-6.09L35.51,92.17l0,0c.2.55.4,1.09.62,1.62h0L56.9,86.06,36.79,95.41l0,0c.24.53.48,1,.74,1.57h0l20.12-9.36L38.32,98.55a0,0,0,0,0,0,0c.27.51.57,1,.86,1.51h0L58.47,89.18,40.1,101.54c.32.49.65,1,1,1.45L59.46,90.62,42.11,104.39c.36.46.72.92,1.09,1.37L60.55,92,44.34,107.07c.39.43.79.85,1.19,1.27L61.74,93.26l-15,16.3c.42.4.85.8,1.29,1.18L63,94.45,49.38,111.87c.46.36.91.73,1.38,1.08L64.39,95.53,52.17,114c.48.33,1,.65,1.46,1l12.21-18.4-10.73,19.3c.5.3,1,.58,1.53.85L67.37,97.34l-9.19,20.11c.53.26,1.06.49,1.6.72L69,98.06l-7.59,20.77c.55.21,1.09.4,1.65.59L70.6,98.67,64.68,120q.82.26,1.68.48l5.93-21.3-4.24,21.69q.86.18,1.71.33L74,99.46l-2.52,22,1.73.2,2.54-22L75,121.74c.58,0,1.16,0,1.74.05l.8-22.05.94,22c.58,0,1.16,0,1.74-.07l-.94-22.08,2.67,22c.58-.06,1.16-.14,1.73-.22L81,99.43l4.38,21.65c.58-.11,1.15-.22,1.72-.35L82.68,99.12l6.06,21.21c.56-.15,1.13-.31,1.68-.48L84.35,98.6l7.72,20.7c.55-.2,1.09-.4,1.63-.62L86,98l9.3,20c.53-.23,1.06-.47,1.58-.73l-9.31-20,10.86,19.24c.51-.28,1-.57,1.51-.87L89.1,96.41l12.31,18.3c.49-.32,1-.64,1.45-1L90.54,95.43l13.72,17.28c.46-.35.92-.71,1.37-1.08L91.89,94.32l15,16.18c.44-.39.86-.79,1.28-1.2l-15-16.12Z"/><path class="cls-1" d="M33.11,52.43a1.18,1.18,0,1,1-1.17-1.18A1.17,1.17,0,0,1,33.11,52.43Z"/><path class="cls-1" d="M121.61,52.43a1.18,1.18,0,1,0,1.18-1.18A1.17,1.17,0,0,0,121.61,52.43Z"/><path class="cls-1" d="M34.71,43.91a2,2,0,0,1,.7-.55,2.15,2.15,0,0,1,.87-.22,2.63,2.63,0,0,1,.91.12,2.69,2.69,0,0,1,.84.47,2.53,2.53,0,0,1,.91,1.6,2.42,2.42,0,0,1,0,.89,2.05,2.05,0,0,1-.42.8,2.09,2.09,0,0,1-.7.56,2.38,2.38,0,0,1-.86.22,2.89,2.89,0,0,1-.91-.12,2.51,2.51,0,0,1-.84-.47,2.43,2.43,0,0,1-.62-.74,2.81,2.81,0,0,1-.3-.87,2.37,2.37,0,0,1,0-.88A2,2,0,0,1,34.71,43.91Zm3.14,2.6a1.19,1.19,0,0,0,.22-.47,1.63,1.63,0,0,0,0-.54,1.71,1.71,0,0,0-.22-.55,1.74,1.74,0,0,0-.42-.49,2.12,2.12,0,0,0-.56-.33,1.8,1.8,0,0,0-.59-.11,1.51,1.51,0,0,0-.53.1,1,1,0,0,0-.42.31,1,1,0,0,0-.22.47,1.63,1.63,0,0,0,0,.54,1.9,1.9,0,0,0,.23.56,2,2,0,0,0,1,.81,1.73,1.73,0,0,0,.58.1,1.32,1.32,0,0,0,.53-.1A1.08,1.08,0,0,0,37.85,46.51Zm5-1.31-.47.81L36.92,41.5a1.7,1.7,0,0,0-.45-.26,1.05,1.05,0,0,0-.41-.1L36,41l.87-.81.31.33Z"/><path class="cls-1" d="M42.59,36l1-.83a1.37,1.37,0,0,0,.21-.2l.15-.21H44l.52.64-.08,0-.13.09-.13.09-.11.09-.23.19a1.82,1.82,0,0,1,.64.19,1.49,1.49,0,0,1,.54.43,2,2,0,0,1,.3.55,1.8,1.8,0,0,1,.08.61,1.92,1.92,0,0,1-.14.62,1.77,1.77,0,0,1-.33.58l.46.56.34-.28a7.37,7.37,0,0,0,.93-.89,2,2,0,0,0,.4-.62l-2.59-3.17a1.8,1.8,0,0,0-.39-.34,1.06,1.06,0,0,0-.38-.18l0-.12,1-.63.24.38,1.61,2,.42-.35a1.58,1.58,0,0,0,.23-.22,1.3,1.3,0,0,0,.18-.23h.1l.52.63-.26.16-.25.19L47,36.1l2.57,3.13-.62.71L47.6,38.25a2.74,2.74,0,0,1-.38.54,7,7,0,0,1-.86.82l-2,1.64a4.28,4.28,0,0,0-.37.32,3.81,3.81,0,0,0-.37.35L43,41.35l0-.11a2.12,2.12,0,0,0,.34-.17l.39-.28.94-.78-.45-.55a1.8,1.8,0,0,1-.63.21,2,2,0,0,1-.64,0,1.7,1.7,0,0,1-.59-.19,1.57,1.57,0,0,1-.49-.4,1.63,1.63,0,0,1-.32-.61,1.89,1.89,0,0,1-.06-.67l-.15.13-.26.24a2.2,2.2,0,0,0-.2.23l-.67-.57,0-.12a1.15,1.15,0,0,0,.31-.14l.32-.21,1-.8-.19-.23a1,1,0,0,0-.22-.19,1,1,0,0,0-.28-.13V35.9l.93-.57.19.28Zm.17,1a1.06,1.06,0,0,0-.28.35,1.16,1.16,0,0,0-.13.41,1.28,1.28,0,0,0,0,.43,1.19,1.19,0,0,0,.21.4.9.9,0,0,0,.33.25,1,1,0,0,0,.4.1,1.21,1.21,0,0,0,.42,0,1.28,1.28,0,0,0,.38-.21,1.1,1.1,0,0,0,.3-.35,1.05,1.05,0,0,0,.14-.41,1,1,0,0,0,0-.42.79.79,0,0,0-.19-.36,1,1,0,0,0-.34-.29,1.06,1.06,0,0,0-.42-.12,1.27,1.27,0,0,0-.43.05A1.36,1.36,0,0,0,42.76,37Z"/><path class="cls-1" d="M57.88,34.38l-.74.57-1.52-2.84-.73.39-.28.16-.24.18-.4-.49A2.14,2.14,0,0,1,54,33a2.24,2.24,0,0,1-.56,1.12,2.25,2.25,0,0,1-.52.4,2,2,0,0,1-1.73.11,2.4,2.4,0,0,1-.78-.46,2.67,2.67,0,0,1-.59-.76,2.57,2.57,0,0,1-.3-.91,2.51,2.51,0,0,1,0-.91,2.17,2.17,0,0,1,.37-.8,2.25,2.25,0,0,1,.68-.58,2.22,2.22,0,0,1,.86-.24,2.33,2.33,0,0,1,.87.13,2.62,2.62,0,0,1,.78.47,2.66,2.66,0,0,1,.6.76,2.9,2.9,0,0,1,.26.73,1.82,1.82,0,0,0,.33-.11l.33-.15.68-.37-.81-1.51-.73.39-.28.17-.24.17L52.69,30l0-.09a1.7,1.7,0,0,0,.35-.11l.37-.17.68-.36-.31-.59a2.17,2.17,0,0,0-.31-.42,1.1,1.1,0,0,0-.35-.24v-.13l1.12-.41.16.42Zm-5.4-.55a1.07,1.07,0,0,0,.38-.35,1.22,1.22,0,0,0,.19-.49,1.88,1.88,0,0,0,0-.58,2.32,2.32,0,0,0-.21-.61,2.06,2.06,0,0,0-.4-.52A1.48,1.48,0,0,0,52,31a1.2,1.2,0,0,0-.52-.12.9.9,0,0,0-.5.12.93.93,0,0,0-.37.34,1.27,1.27,0,0,0-.19.5,1.68,1.68,0,0,0,0,.59A2.19,2.19,0,0,0,51,33.5a1.48,1.48,0,0,0,.48.33A1.2,1.2,0,0,0,52,34,1,1,0,0,0,52.48,33.83Z"/><path class="cls-1" d="M59.05,27.16l-.33.12-.28.13-.4-.79.09-.09a1.26,1.26,0,0,0,.33,0l.38-.07,3.22-1,.27-.11a1.28,1.28,0,0,0,.21-.14l.06,0,.24.8-.24,0-.29.07-1.3.39.1.31a4,4,0,0,0,.39.92,2.77,2.77,0,0,0,.59.72,3.1,3.1,0,0,0,.85.51,5,5,0,0,0,1.16.32l-.37.82a5.15,5.15,0,0,1-1.47-.51,3.77,3.77,0,0,1-1-.79,3.84,3.84,0,0,1-.39,1.29,4.4,4.4,0,0,1-1,1.26l-.76-.48a4.47,4.47,0,0,0,.78-.9,3.22,3.22,0,0,0,.41-.89,2.63,2.63,0,0,0,.08-.93,5.28,5.28,0,0,0-.19-1l-.12-.4Zm6,.36,1.21,4L65.4,32l-2.05-6.79a1.71,1.71,0,0,0-.23-.47,1.24,1.24,0,0,0-.28-.31l0-.12,1.18-.18.07.44.69,2.29.53-.16.29-.11.26-.15.09.05.23.78-.29.05-.31.08Z"/><path class="cls-1" d="M76,30.19l-.9.24-.42-4.35-.81.07.4,4.11-.9.25-.25-2.57a2.23,2.23,0,0,1-.37.17,3.65,3.65,0,0,1-.61.12l-2.65.25a.29.29,0,0,1-.2-.05.23.23,0,0,1-.12-.19l-.36-3.63a3.13,3.13,0,0,0-.08-.4,2.14,2.14,0,0,0-.16-.35l.1-.1.34,0a1.79,1.79,0,0,0,.4,0l1.86-.18a1.54,1.54,0,0,0,.53-.14l0,0,.08.84H71.7l-.29,0-1.63.16.31,3.15,2-.19a3,3,0,0,0,.56-.12,1.31,1.31,0,0,0,.46-.23l-.34-3.54a1.76,1.76,0,0,0-.13-.5,1.18,1.18,0,0,0-.22-.36l.05-.11,1.18,0v.45l.23,2.29.8-.08-.19-1.94a1.81,1.81,0,0,0-.12-.51,1,1,0,0,0-.23-.35l.06-.12,1.18.05v.45Z"/><path class="cls-1" d="M81.83,23.45l1.35.13a1.4,1.4,0,0,0,.29,0,.77.77,0,0,0,.25,0l0,.05-.08.82-.24-.05-.29-.05-.33,0a1.79,1.79,0,0,1,.34.6,1.69,1.69,0,0,1,.08.71,1.8,1.8,0,0,1-.24.73,1.91,1.91,0,0,1-1.2.89,2.36,2.36,0,0,1-.84.07,2.27,2.27,0,0,1-.79-.23,1.93,1.93,0,0,1-.62-.46,2.22,2.22,0,0,1-.38-.65,1.92,1.92,0,0,1-.09-.76,1.81,1.81,0,0,1,.22-.68,1.6,1.6,0,0,1,.45-.52l-.23,0-.35,0-.31,0-.07-.87.12-.05a1.48,1.48,0,0,0,.32.11,2.74,2.74,0,0,0,.37.08l1.3.13,0-.35a1,1,0,0,0,0-.3,1.33,1.33,0,0,0-.1-.28l.07-.1,1.06.26-.06.32Zm1.83,7.4.2-2-3.77-.37a1.71,1.71,0,0,0-.32,0l-.3,0-.07-.89.11-.05a1.21,1.21,0,0,0,.29.1,2.41,2.41,0,0,0,.37.07l4.1.4a1.52,1.52,0,0,0,.29,0,1.75,1.75,0,0,0,.23,0l.06.06-.25,2.62Zm-2.39-6.63a1.23,1.23,0,0,0-.47,0,1.16,1.16,0,0,0-.39.22,1.19,1.19,0,0,0-.29.34,1.27,1.27,0,0,0-.09.91,1.07,1.07,0,0,0,.22.39,1.11,1.11,0,0,0,.35.29,1.25,1.25,0,0,0,.44.13,1.22,1.22,0,0,0,.47-.05,1.16,1.16,0,0,0,.4-.2A1.34,1.34,0,0,0,82.2,26a1.27,1.27,0,0,0,.09-.91,1.11,1.11,0,0,0-.22-.4,1.39,1.39,0,0,0-.35-.29A1.17,1.17,0,0,0,81.27,24.22Zm3.81,1.66-.19,1.88H84l.39-4a1.51,1.51,0,0,0,0-.52.88.88,0,0,0-.15-.39l.08-.11,1.16.28-.1.44-.16,1.66.54.05H86l.29,0,.06.08-.08.81L86,26l-.32,0Z"/><path class="cls-1" d="M95,31.63l-.25.81a2.36,2.36,0,0,0-.28-.12l-.31-.1-5.57-1.69-.32-.08a2.19,2.19,0,0,0-.31-.05l.1-.87.12,0a1.47,1.47,0,0,0,.27.16l.34.14.93.29.54-1.76a2.14,2.14,0,0,0,.08-.54.81.81,0,0,0-.08-.37l.1-.09,1.08.48-.15.33-.67,2.22,1,.28.55-1.81a2.13,2.13,0,0,0,.08-.53,1.12,1.12,0,0,0-.07-.38l.09-.08,1.08.48-.15.32-.68,2.27,1.9.58a1.57,1.57,0,0,0,.33.08h.27Zm-4.53-6.18-.28,0,.11-.88.12,0a1.71,1.71,0,0,0,.29.17,1.78,1.78,0,0,0,.36.14l4.13,1.25.32.06a1,1,0,0,0,.28,0l0,.07-.09.24-.27.83c-.12.4-.25.78-.37,1.13s-.24.66-.34.93-.24.6-.36.87l-1-.11c.1-.23.21-.48.32-.76s.2-.49.31-.78.21-.6.31-.91l.29-1L90.8,25.53Z"/><path class="cls-1" d="M102.13,37.22l-.89-.31,1.05-2a2.77,2.77,0,0,1-.65-.15,7,7,0,0,1-1.1-.49l-2.33-1.24-.44-.23c-.13-.06-.28-.13-.47-.2l.28-.83h.12a1.57,1.57,0,0,0,.29.26l.4.25,2.35,1.25a7.6,7.6,0,0,0,1.19.53,2,2,0,0,0,.74.14l1.91-3.57a1.68,1.68,0,0,0,.17-.49,1,1,0,0,0,0-.42l.11-.06,1,.7-.26.36Zm.16-8.51a2.1,2.1,0,0,1,.67.54,1.94,1.94,0,0,1,.4.73,2.15,2.15,0,0,1,.09.8,1.83,1.83,0,0,1-.23.81,2.09,2.09,0,0,1-.54.64,2.16,2.16,0,0,1-1.54.43,2.27,2.27,0,0,1-1.47-.79,2.09,2.09,0,0,1-.4-.71,2.17,2.17,0,0,1-.09-.8,1.83,1.83,0,0,1,.23-.81,2,2,0,0,1,.54-.64,2.18,2.18,0,0,1,1.54-.45A2.08,2.08,0,0,1,102.29,28.71Zm-.38.7a1,1,0,0,0-.46-.12,1.24,1.24,0,0,0-.47.06,1.72,1.72,0,0,0-.43.25,1.3,1.3,0,0,0-.32.41,1.22,1.22,0,0,0-.15.48,1.1,1.1,0,0,0,0,.48,1.19,1.19,0,0,0,.21.42,1.31,1.31,0,0,0,.36.3,1.48,1.48,0,0,0,.48.15,1.57,1.57,0,0,0,.48-.05,1.27,1.27,0,0,0,.42-.24,1.24,1.24,0,0,0,.32-.39,1.31,1.31,0,0,0,.15-.5,1.34,1.34,0,0,0,0-.49,1.3,1.3,0,0,0-.22-.44A1.18,1.18,0,0,0,101.91,29.41Z"/><path class="cls-1" d="M110.39,39.82l-.74.9.91.75a1.47,1.47,0,0,0,.28.2,1.28,1.28,0,0,0,.24.11v.06l-.54.66a2.19,2.19,0,0,0-.21-.23l-.24-.21-4.5-3.69a3.16,3.16,0,0,0-.27-.2,2.29,2.29,0,0,0-.27-.17l.43-.77.13,0a.85.85,0,0,0,.18.25,2.23,2.23,0,0,0,.26.27l1,.81.74-.9-.51-.42a.42.42,0,0,1-.11-.18.29.29,0,0,1,0-.22l1-1.2a1.79,1.79,0,0,0,.22-.35,2.3,2.3,0,0,0,.15-.35h.14a1.32,1.32,0,0,0,.2.27,2.54,2.54,0,0,0,.29.28l2.66,2.18.66-.8-2.66-2.19-.31-.22-.24-.14.43-.78.13,0a1,1,0,0,0,.2.27l.27.27,2.94,2.41.24.17a1.46,1.46,0,0,0,.23.1v.07l-1.65,2-3.18-2.61-.68.83,2.93,2.4.22.16a1.34,1.34,0,0,0,.24.12v0l-.53.66-.19-.2-.21-.19Zm-2.63-.66,1.18,1,.74-.9-1.18-1Z"/><path class="cls-1" d="M113.46,45.14a1.7,1.7,0,0,0,.34-.37,1,1,0,0,0,.17-.36l.12,0,.63,1-.37.24-.61.5,2.45,3a1.69,1.69,0,0,0,.41.35v.07l-.65.54-.15-.23a2.11,2.11,0,0,0-.17-.22l-2.88-3.51a.29.29,0,0,1-.07-.2.25.25,0,0,1,.09-.2Zm4.35,1.26a2.78,2.78,0,0,1-.57-.36,5.32,5.32,0,0,1-.87-.86l-.32-.4-.85.7-.67-.66.92-.76-.64-.79-.32-.37q-.15-.16-.36-.36l.57-.67.12,0a1.33,1.33,0,0,0,.17.34,2.7,2.7,0,0,0,.27.39l1.6,1.94a6.44,6.44,0,0,0,.85.87,2.15,2.15,0,0,0,.63.39ZM117,48.68l-.71-.62.57-.46-.72-.87a2.25,2.25,0,0,0-.21-.24l-.22-.2.53-.64h.1a2.08,2.08,0,0,0,.17.32l.24.32.68.82,2.94-2.42a1.57,1.57,0,0,0,.35-.38.91.91,0,0,0,.17-.39l.13,0,.62,1-.37.24Zm2.09-7a2.56,2.56,0,0,1,.42.71,2.26,2.26,0,0,1,.17.75,1.61,1.61,0,0,1-.1.69,1.41,1.41,0,0,1-.4.56,1.3,1.3,0,0,1-.62.28,1.66,1.66,0,0,1-.7,0,2.26,2.26,0,0,1-.69-.32,2.73,2.73,0,0,1-1-1.27,2.16,2.16,0,0,1-.18-.76,1.47,1.47,0,0,1,.1-.69,1.26,1.26,0,0,1,.39-.55,1.32,1.32,0,0,1,.62-.29,1.56,1.56,0,0,1,.71,0,2.39,2.39,0,0,1,.7.31A2.43,2.43,0,0,1,119.13,41.66Zm-.6.49a1.86,1.86,0,0,0-.36-.33,1.75,1.75,0,0,0-.39-.19,1.25,1.25,0,0,0-.38,0,.71.71,0,0,0-.33.15.63.63,0,0,0-.2.29.8.8,0,0,0,0,.38,1.14,1.14,0,0,0,.11.42,2,2,0,0,0,.25.41,1.75,1.75,0,0,0,.35.32,1,1,0,0,0,.38.18.84.84,0,0,0,.38,0,.55.55,0,0,0,.32-.14.66.66,0,0,0,.21-.29.81.81,0,0,0,0-.38,1.35,1.35,0,0,0-.1-.42A1.85,1.85,0,0,0,118.53,42.15Z"/><path class="cls-3" d="M80,52H87.4V69.69c0,2.24.44,4.16,3.5,4.16,2.67,0,3.46-1.71,3.46-4.16V52h7.44V66.34c0,7.28-3.37,10.46-10.9,10.46-7,0-10.93-2.68-10.93-10.49Z"/><path class="cls-3" d="M74,54.94V52H52.92V71.66c0,2.42,1.88,4.09,4.47,4.14H74v-3H60.36V64.61H73.69v-3H60.36V54.94Z"/><path class="cls-3" d="M84.71,95.57c.06,7.93,4.08,10.66,11.28,10.66,7.76,0,10.81-3.51,11.17-9h-7.6V99c0,2.53-.81,4.29-3.57,4.29-3.16,0-3.61-2-3.61-4.29v-11c0-2.31.45-4.29,3.61-4.29,2.76,0,3.57,1.76,3.57,4.29V89.7h7.6a12.17,12.17,0,0,0-1.28-4.64c-1.76-3.12-5.18-4.37-9.89-4.37-7.24,0-11.26,2.76-11.28,10.79h0Z"/><path class="cls-3" d="M78,83.09a2.28,2.28,0,0,0-.37-.73,2.62,2.62,0,0,0-2.33-1.07H70.8a2.6,2.6,0,0,0-2.32,1.07,3.45,3.45,0,0,0-.38.74l-4,13.18L60.23,83.09a3.16,3.16,0,0,0-.38-.73,2.6,2.6,0,0,0-2.32-1.07H53a2.6,2.6,0,0,0-2.71,1.81l-7.4,24.27,5.49,5.84a2.66,2.66,0,0,0,.27-.63l6.55-21.53,3.86,13.18a2.14,2.14,0,0,0,.37.74h0a2.59,2.59,0,0,0,2.32,1.08h4.55A2.61,2.61,0,0,0,69,104.23l4-13.18,3.78,12.86a2.37,2.37,0,0,0,2.41,1.9h5.51Z"/><path class="cls-1" d="M31.43,61.1l-2-.71-.36,1a1.55,1.55,0,0,0,0,.15l-.06.2q-.06.26-.09.36l-.62-.21.15-.34.08-.19a1.16,1.16,0,0,1,.06-.15l.35-1-2.39-.82a2.76,2.76,0,0,0-.15.43l-.24.79a6.11,6.11,0,0,0-.17.74l-.58-.2,1-2.79,5.9,2-.95,2.75-.58-.2.19-.35.14-.32.21-.53Z"/><path class="cls-1" d="M25.67,64.14l5.26-.43-.2,1h-.41l-.59,0-1.95.1L25.89,65v.08l2.81,1.6c.71.4,1.2.66,1.47.8l-.13.64-1.92.17-2.94.26,0,.08.48.24.49.27,3.34,1.74-.14.73c-.18-.11-.35-.23-.53-.33s-.36-.21-.54-.31L23.57,68.4l.12-.61,2.14-.17,2.93-.21v-.06l-4.48-2.5.13-.62.52,0Z"/><path class="cls-1" d="M26.57,76.34l2.55.13,0,.92-6.26-.31,0-.92,3.08.15c0-.41.06-.75.08-1a5,5,0,0,0,0-.52c0-.09,0-.26,0-.52s0-.59,0-1L23,73.1l0-.91,6.26.31-.05.91-2.55-.13c0,.43-.06.77-.08,1s0,.43,0,.52,0,.26,0,.51S26.58,75.92,26.57,76.34Z"/><path class="cls-1" d="M29.45,81.1,23.21,84l-.07-1,2.09-.92-.14-1.9-2.21-.64-.05-.72,6.61,2.1Zm-3.72.73,2-.89-2.15-.61Z"/><path class="cls-1" d="M25.32,89.17l4.5-2.78.26,1-.36.21-.51.29-1.69,1-1.6,1,0,.08,3.23.14c.81,0,1.37,0,1.67,0l.18.63-1.64,1-2.5,1.56,0,.08H28l3.77,0,.2.71-.62-.06-.63,0-5.33-.17-.17-.6,1.83-1.12c.71-.44,1.55-.94,2.52-1.51l0-.07-5.13-.19-.17-.61.45-.27Z"/><path class="cls-1" d="M27.64,100a2.88,2.88,0,0,1-.1-2.38,3.27,3.27,0,0,1,1.79-1.73,3.32,3.32,0,0,1,2.55-.19,2.92,2.92,0,0,1,1.7,1.61,3.2,3.2,0,0,1,.21,2.26A3,3,0,0,1,32,101.43a3.4,3.4,0,0,1-2.59.22A3,3,0,0,1,27.64,100Zm3.9.53a5.32,5.32,0,0,0,.87-.5,2.5,2.5,0,0,0,.64-.7,1.87,1.87,0,0,0-1.22-2.83,3.48,3.48,0,0,0-2.15.36,3,3,0,0,0-1.55,1.38,1.77,1.77,0,0,0,0,1.57,1.86,1.86,0,0,0,1.64,1.07A3.74,3.74,0,0,0,31.54,100.5Z"/><path class="cls-1" d="M38.09,105.44l.2.32c-1,.83-2,1.58-2.79,2.24s-1.51,1.24-2.1,1.74l-.55-.84,2.25-1.73c.57-.44,1-.76,1.18-1-2,.22-3.5.43-4.64.64l-.13-.2.64-.93.67-1.07L34,102.85l-.85.44-1.06.55-1.07.58c-.31.17-.56.32-.76.45l-.42-.65c1.31-.61,2.44-1.14,3.38-1.6s1.72-.84,2.31-1.16l.18.27c-.6.94-1.12,1.76-1.56,2.47s-.81,1.31-1.1,1.82l2-.22Z"/><path class="cls-1" d="M41,108.79l-3.27,6.07-.67-.78,1.14-2-1.25-1.45c-1.17.45-1.89.71-2.16.8l-.47-.54,6.57-2.24Zm-2.56,2.8,1.11-1.93-2.09.78Z"/><path class="cls-1" d="M46.78,114.73l-4.21,4.65-.29-.25.35-5.9-.07-.07-3.1,3.41-.44-.4,4.21-4.65.35.31-.27,5.67.07.07,2.94-3.25Z"/><path class="cls-1" d="M45,119.7l.06,0a1.51,1.51,0,0,0,.6,1.47,1,1,0,0,0,.8.1,1.26,1.26,0,0,0,.7-.53,1,1,0,0,0,.12-1.14c-.11-.22-.21-.42-.32-.62s-.19-.4-.28-.59a1.51,1.51,0,0,1,.29-1.51,1.69,1.69,0,0,1,1.23-.75,1.89,1.89,0,0,1,1.3.4,1.62,1.62,0,0,1,.7,1.05l-.62.47-.07,0a1,1,0,0,0-.41-1.17.8.8,0,0,0-.67-.16,1,1,0,0,0-.62.45,1,1,0,0,0-.14,1c.19.45.4.88.61,1.29a1.47,1.47,0,0,1-.2,1.51,2,2,0,0,1-1.38.9,2.16,2.16,0,0,1-1.53-.42,2.31,2.31,0,0,1-.5-.53,1.59,1.59,0,0,1-.28-.69Z"/><path class="cls-1" d="M54.62,119.93l-1.56,3.15a2.78,2.78,0,0,0-.41,1.69,1.61,1.61,0,0,0,.84,1.08c1,.48,1.81,0,2.47-1.43l1.53-3.06.58.29-1.62,3.27a3.68,3.68,0,0,1-.67,1,2.37,2.37,0,0,1-.81.56,2,2,0,0,1-.91.13,2.7,2.7,0,0,1-1-.28,2.44,2.44,0,0,1-1.32-1.37,2.89,2.89,0,0,1,.39-2.13l1.63-3.28Z"/><path class="cls-1" d="M64.23,123.85l-2,6-.36-.12-2-5.55-.1,0-1.47,4.36-.58-.19,2-6,.44.15,2,5.3.09,0,1.4-4.14Z"/><path class="cls-1" d="M64.41,130.33l1.44-6.1.89.21-1.44,6.1Z"/><path class="cls-1" d="M71.39,126.81l.75-1.45.75.11c-.1.15-.28.45-.54.91s-.62,1.08-1.06,1.85l-1.11,2c-.27.52-.46.88-.57,1.11l-.33-.05c-.11-.42-.24-.95-.4-1.58s-.33-1.38-.52-2.24-.33-1.44-.43-1.9-.18-.74-.22-.85l1,.15c0,.1,0,.23.07.38s.06.34.1.54l.31,1.67.51,2.3h.09l.43-.77Z"/><path class="cls-1" d="M74.81,126l-.09,2.16,1.07.05h.74l0,.65-.37,0-.2,0h-.16l-1.08-.05-.11,2.53.46,0h.83a4.93,4.93,0,0,0,.76-.05l0,.62-2.95-.13.27-6.23,2.9.12,0,.62-.39-.08-.35,0-.57-.05Z"/><path class="cls-1" d="M82.69,131.67l-1.13.06-.23-.33c-.1-.12-.21-.27-.33-.44l-1.06-1.34-.71-.84.17,3.07-.92.05-.33-6.27,1.72-.09c1.21-.07,1.85.36,1.9,1.29a1.55,1.55,0,0,1-.47,1.24,2.36,2.36,0,0,1-1,.59ZM79.09,126l.12,2.35a2.31,2.31,0,0,0,.78-.08,1.59,1.59,0,0,0,.69-.46,1.15,1.15,0,0,0,.23-.82,1,1,0,0,0-1-1,1.47,1.47,0,0,0-.37,0Z"/><path class="cls-1" d="M83.9,130.26H84a1.48,1.48,0,0,0,1.45.63,1,1,0,0,0,.65-.49,1.37,1.37,0,0,0,.12-.87,1.05,1.05,0,0,0-.71-.9l-.66-.22-.61-.21a1.52,1.52,0,0,1-.85-1.29,1.69,1.69,0,0,1,.35-1.39,1.85,1.85,0,0,1,1.21-.63,1.56,1.56,0,0,1,1.23.26l-.11.77H86a1.05,1.05,0,0,0-1.12-.55.86.86,0,0,0-.59.35,1,1,0,0,0-.13.76,1,1,0,0,0,.64.85c.45.19.9.35,1.34.5A1.46,1.46,0,0,1,87,129a2,2,0,0,1-.35,1.61,2.13,2.13,0,0,1-1.39.77,2.27,2.27,0,0,1-.73,0,1.39,1.39,0,0,1-.68-.3Z"/><path class="cls-1" d="M89,130.64l-1.38-6.11.89-.2,1.38,6.11Z"/><path class="cls-1" d="M92.2,123.85l1.69,5.5-.88.27-1.69-5.5a14.62,14.62,0,0,0-1.61.61l-.19-.62,4.08-1.25.19.62A13.17,13.17,0,0,0,92.2,123.85Z"/><path class="cls-1" d="M98,124.78l1.1,2.59-.82.35-1-2.44L94,122.73l1-.44c.28.27.71.64,1.3,1.12l.7.58.39.29c0-.11.15-1.15.31-3.13l.71-.31c-.08.41-.14.76-.17,1.08l-.2,1.85A4.46,4.46,0,0,0,98,124.78Z"/><path class="cls-1" d="M105.76,116.43l.32-.21c.84,1,1.6,2,2.27,2.78s1.25,1.5,1.75,2.08l-.83.56-1.75-2.24-1-1.17c.23,2,.45,3.49.67,4.63l-.2.13-.94-.63L105,121.7l-1.83-1.13c.14.24.29.52.46.84l.56,1.06.58,1.07c.17.3.33.55.46.75l-.65.43c-.62-1.31-1.16-2.43-1.63-3.37s-.85-1.71-1.17-2.3l.27-.18,2.48,1.54,1.82,1.08c0-.51-.12-1.18-.23-2S105.92,117.62,105.76,116.43Z"/><path class="cls-1" d="M108.62,114.77l1.4,1.64.82-.69.12-.11.15-.14a3,3,0,0,1,.26-.26l.42.49a2.33,2.33,0,0,1-.3.22l-.16.12-.13.1-.82.7,1.64,1.93.35-.3.61-.57a3.91,3.91,0,0,0,.52-.55l.4.48-2.25,1.91-4-4.75,2.21-1.88.4.47c-.12.07-.24.13-.34.2a3.39,3.39,0,0,0-.28.2l-.46.35Z"/><path class="cls-1" d="M115.44,116.42l-4.55-4.27,1.28-1.36c.22-.24.41-.44.56-.58a3.64,3.64,0,0,1,.31-.3,1.91,1.91,0,0,1,1.15-.48,2.94,2.94,0,0,1,2.28.92,3.57,3.57,0,0,1,1.26,2.61,2.4,2.4,0,0,1-.37,1.28,7,7,0,0,1-.83,1Zm-3.52-4.56,3.7,3.48c.14-.13.25-.25.36-.34l.24-.24a2.8,2.8,0,0,0,.72-1.13,3.1,3.1,0,0,0-2.82-3.29,2.49,2.49,0,0,0-1.65.89,3.11,3.11,0,0,0-.22.24Z"/><path class="cls-1" d="M120.11,111.21l-5-3.85.56-.72,5,3.85Z"/><path class="cls-1" d="M123.91,105a2.94,2.94,0,0,1-.09.93,3.31,3.31,0,0,1-.46.95,2.66,2.66,0,0,1-1.88,1.23,3.39,3.39,0,0,1-2.45-.66,4.27,4.27,0,0,1-1-.88,2.76,2.76,0,0,1-.52-1.09,2.81,2.81,0,0,1,0-1.19,2.92,2.92,0,0,1,.47-1.17,4.23,4.23,0,0,1,.57-.71,4.13,4.13,0,0,1,.79-.61l.61.64-.08.15a1.24,1.24,0,0,0-.33,0,2.79,2.79,0,0,0-.35.11,1.7,1.7,0,0,0-.45.31,1.66,1.66,0,0,0-.32.39,1.34,1.34,0,0,0-.2.44,2.57,2.57,0,0,0-.07.46,2.32,2.32,0,0,0,0,.46,2.77,2.77,0,0,0,.12.41,3.34,3.34,0,0,0,.49.75,4.54,4.54,0,0,0,.82.67,3.19,3.19,0,0,0,2,.6,1.77,1.77,0,0,0,.76-.22,1.82,1.82,0,0,0,.61-.54,2.09,2.09,0,0,0,.36-.85,3.1,3.1,0,0,0,0-1.09Z"/><path class="cls-1" d="M120.53,98.56l6.87.64-.46.93-2.28-.28-.84,1.72,1.57,1.67-.31.65-4.63-5.17Zm3.57,1.27-2.21-.27,1.55,1.62Z"/><path class="cls-1" d="M122.44,94.59l5.38,2c.12-.29.23-.59.33-.92s.2-.68.29-1.06l.58.21L128,97.63l-5.85-2.18Z"/><path class="cls-1" d="M130.79,86a2.86,2.86,0,0,1,.25.91,3,3,0,0,1-.07,1,2.67,2.67,0,0,1-1.3,1.84,3.44,3.44,0,0,1-2.52.28,4,4,0,0,1-1.23-.45,2.8,2.8,0,0,1-.89-.83,2.87,2.87,0,0,1-.47-1.09,3,3,0,0,1,0-1.26,4,4,0,0,1,.28-.87,3.88,3.88,0,0,1,.51-.86l.8.38,0,.17a1,1,0,0,0-.28.15,1.94,1.94,0,0,0-.29.23,1.86,1.86,0,0,0-.31.46,2.14,2.14,0,0,0-.15.47,1.38,1.38,0,0,0,0,.49,1.83,1.83,0,0,0,.12.46,2.14,2.14,0,0,0,.2.4,2.34,2.34,0,0,0,.26.34,2.82,2.82,0,0,0,.73.51,4,4,0,0,0,1,.33,3.14,3.14,0,0,0,2.07-.17,1.86,1.86,0,0,0,1-1.21,2.24,2.24,0,0,0,0-.93,2.75,2.75,0,0,0-.43-1Z"/><path class="cls-1" d="M125.84,82.52l2.15.21.1-1.08s0-.09,0-.15,0-.13,0-.21a3.35,3.35,0,0,1,0-.37l.64.06-.06.37a1.77,1.77,0,0,0,0,.2c0,.06,0,.11,0,.16l-.11,1.07,2.52.24c0-.09,0-.24,0-.45s0-.49,0-.83a4.82,4.82,0,0,0,0-.76l.61.06L131.47,84l-6.21-.6.28-2.89.61.06c0,.13-.07.26-.1.38a2.21,2.21,0,0,0-.06.34l-.09.57Z"/><path class="cls-1" d="M125.57,74.25l6.28,0v.38l-4.57,3.73v.11l4.61,0V79l-6.28.05v-.47L130,74.92v-.09l-4.38,0Z"/><path class="cls-1" d="M125.66,70.54l5.71-.74.12.9-5.71.74a17.17,17.17,0,0,0,.33,1.69l-.64.08L124.92,69l.64-.09A14.74,14.74,0,0,0,125.66,70.54Z"/><path class="cls-1" d="M125,66.92l2.1-.47-.23-1a1.24,1.24,0,0,0,0-.16c0-.06,0-.12-.06-.2s-.09-.28-.11-.35l.63-.15a2.81,2.81,0,0,1,.06.37q0,.12,0,.21t0,.15l.24,1,2.46-.56a2.68,2.68,0,0,0-.1-.44c-.05-.21-.12-.48-.22-.8a5.07,5.07,0,0,0-.24-.72l.6-.14.66,2.88-6.09,1.38-.64-2.83.6-.14c0,.15,0,.28,0,.4s0,.24,0,.34l.1.57Z"/><path class="cls-1" d="M128.32,57.83l.36,1.06-.26.32-.33.44-1,1.37-.62.91,2.92-1,.28.87-6,2-.54-1.63c-.39-1.16-.14-1.88.74-2.18a1.56,1.56,0,0,1,1.32.12,2.33,2.33,0,0,1,.84.84Zm-4.51,5,2.24-.74a2.65,2.65,0,0,0-.29-.72,1.41,1.41,0,0,0-.62-.55,1.16,1.16,0,0,0-.86,0,1,1,0,0,0-.73,1.21c0,.11,0,.22.09.36S123.74,62.64,123.81,62.8Z"/></g></g></svg>